<?xml version="1.0" standalone="no"?>
<!DOCTYPE svg PUBLIC "-//W3C//DTD SVG 20010904//EN"
 "http://www.w3.org/TR/2001/REC-SVG-20010904/DTD/svg10.dtd">
<svg version="1.0" xmlns="http://www.w3.org/2000/svg"
 width="814.000000pt" height="140.000000pt" viewBox="0 0 814.000000 140.000000"
 preserveAspectRatio="xMidYMid meet">

<g transform="translate(0.000000,140.000000) scale(0.100000,-0.100000)"
fill="#000000" stroke="none">
<path d="M943 1378 c-9 -21 -17 -25 -38 -20 -25 4 -26 3 -13 -17 11 -19 11
-24 -4 -35 -24 -17 -23 -24 5 -28 18 -2 21 -8 18 -33 l-3 -30 22 20 c17 16 25
17 40 7 16 -10 19 -8 22 10 2 14 12 24 27 28 22 5 22 6 7 19 -12 10 -15 22
-11 39 5 22 3 24 -18 18 -19 -4 -25 0 -33 21 l-9 27 -12 -26z"/>
<path d="M630 1262 c0 -10 6 -27 14 -38 19 -25 10 -95 -20 -156 -13 -25 -55
-80 -93 -121 -44 -48 -74 -90 -82 -115 l-12 -40 -58 30 c-74 39 -87 53 -71 79
7 10 12 33 11 51 l-1 33 -15 -34 c-8 -19 -13 -48 -11 -63 3 -20 0 -28 -11 -28
-9 -1 1 -7 23 -15 51 -18 60 -28 36 -43 -12 -7 -20 -8 -20 -2 0 5 -5 10 -11
10 -6 0 -9 -6 -6 -12 2 -7 1 -22 -3 -33 -5 -13 -2 -31 6 -45 13 -24 13 -24 14
16 0 46 14 64 50 64 44 0 70 -26 70 -71 0 -35 -3 -39 -25 -39 -14 0 -52 -11
-85 -25 -33 -14 -68 -25 -78 -25 -10 0 -19 -7 -19 -15 0 -8 7 -15 14 -15 8 0
11 5 8 10 -3 6 0 10 9 10 8 0 16 -6 19 -12 2 -8 8 -9 13 -4 5 5 3 11 -5 14 -8
2 14 15 49 28 70 27 94 30 87 12 -2 -7 -12 -12 -21 -12 -10 1 -16 -6 -16 -18
0 -18 -2 -19 -17 -7 -15 13 -16 12 -11 -9 5 -17 2 -22 -12 -22 -20 0 -43 -23
-33 -33 3 -4 -24 -7 -61 -7 -65 0 -66 1 -56 21 17 31 6 33 -26 6 -16 -14 -44
-28 -62 -32 -72 -15 -12 -25 156 -25 206 0 208 1 250 88 37 77 57 82 48 11
-15 -104 -26 -93 109 -99 70 -4 -32 -7 -245 -8 -321 -2 -368 0 -388 14 -29 20
-26 59 3 59 14 0 19 -6 17 -19 -2 -11 1 -15 7 -11 16 9 13 30 -4 45 -12 10
-21 10 -40 2 -31 -14 -33 -54 -5 -82 19 -19 33 -20 268 -20 144 0 241 -4 233
-9 -10 -6 -4 -12 23 -22 23 -8 33 -16 26 -23 -6 -6 -15 -5 -25 4 -10 8 -15 9
-15 1 0 -6 6 -11 13 -11 6 0 4 -5 -6 -11 -14 -8 -22 -8 -30 0 -6 6 -24 11 -41
11 -35 0 -24 -16 14 -22 25 -4 25 -4 -6 -20 -43 -24 -114 -47 -144 -49 -21 -1
-22 -2 -5 -6 11 -3 23 -10 27 -17 5 -7 11 -6 20 6 7 9 25 20 39 23 26 7 27 6
22 -39 -5 -38 -3 -46 11 -46 19 0 22 16 4 22 -22 8 5 71 41 95 44 30 53 29 41
-3 -13 -33 -13 -67 0 -59 5 3 10 21 10 39 0 45 17 63 82 86 81 28 95 27 69 -6
-12 -15 -21 -32 -21 -38 1 -6 7 1 15 15 17 31 48 48 38 21 -6 -16 -5 -16 14 0
24 22 32 22 83 2 47 -19 54 -48 15 -66 -19 -8 -28 -8 -40 2 -23 19 -18 40 11
40 14 0 23 4 19 10 -3 6 -17 10 -30 10 -44 0 -41 -70 4 -85 24 -7 67 9 79 31
9 16 12 16 27 4 17 -14 45 -62 45 -78 0 -5 -37 -13 -82 -17 -46 -3 -110 -13
-143 -20 -32 -8 -61 -13 -63 -11 -1 2 4 11 13 20 11 10 26 14 43 10 26 -5 26
-5 8 10 -11 9 -25 16 -32 16 -7 0 -15 6 -17 13 -3 6 -6 3 -6 -8 -1 -11 -10
-31 -21 -45 l-20 -25 3 40 2 40 -40 0 -40 0 2 -62 c1 -62 1 -63 -23 -57 -13 3
-32 3 -41 -2 -13 -6 -6 -9 27 -13 39 -5 46 -10 49 -31 1 -14 8 -28 15 -32 19
-13 78 -8 156 12 41 11 88 20 103 20 25 0 27 -2 16 -21 -6 -12 -9 -30 -6 -40
6 -24 -2 -29 -71 -43 -31 -6 -57 -17 -60 -23 -5 -17 30 -17 71 0 18 8 45 17
61 21 l28 7 -21 -34 c-25 -41 -26 -47 -5 -47 10 0 14 5 10 16 -3 8 -2 13 3 10
5 -3 14 8 21 24 7 16 20 35 29 42 13 10 14 10 4 -2 -16 -18 -17 -57 -1 -66 7
-4 8 -3 4 4 -5 9 6 12 36 11 41 -1 42 -2 13 -10 -26 -7 -24 -8 12 -5 24 2 46
0 49 -5 3 -5 12 -9 20 -9 12 0 11 6 -7 31 -15 22 -18 33 -10 40 6 5 9 6 6 3
-5 -8 71 -48 108 -58 20 -5 27 -3 27 8 0 9 -14 18 -34 21 -50 10 -101 44 -87
58 16 16 13 45 -6 56 -26 15 -10 13 106 -10 110 -23 167 -19 181 11 13 25 32
103 33 134 2 23 -4 34 -25 45 -35 20 -61 6 -68 -35 l-5 -29 -18 25 c-9 13 -18
34 -18 45 -1 20 -1 20 -6 0 -3 -11 -17 -30 -32 -42 -20 -17 -22 -22 -9 -23 9
0 20 5 23 10 10 16 22 12 38 -13 l15 -24 -81 14 c-45 7 -107 16 -139 19 -77 9
-84 15 -69 52 7 17 21 38 31 47 17 15 20 14 43 -9 43 -43 107 -29 107 24 0 33
-31 50 -55 30 -22 -18 -18 -32 5 -18 27 17 50 -3 30 -27 -18 -22 -56 -18 -74
7 -19 27 -7 43 41 57 48 14 73 -9 73 -65 0 -31 4 -43 11 -38 11 7 8 51 -7 88
-13 33 16 7 32 -28 7 -17 13 -24 14 -16 0 9 -7 26 -16 38 -9 13 -14 26 -11 29
3 3 38 -4 77 -16 66 -20 72 -24 92 -66 12 -25 26 -45 30 -45 14 0 9 16 -13 44
-28 36 -19 42 29 17 41 -21 72 -70 72 -113 -1 -12 -7 -41 -15 -63 -12 -35 -12
-38 1 -21 7 11 14 15 14 9 0 -6 11 -10 25 -10 14 0 25 3 25 7 0 4 -11 11 -25
14 -14 4 -25 11 -25 17 0 8 5 7 15 -1 10 -9 15 -9 15 -1 0 6 -4 11 -10 11 -5
0 -10 14 -10 31 0 17 4 28 10 24 6 -3 10 1 10 9 0 9 -7 16 -16 16 -14 0 -14 2
0 15 19 19 27 19 20 0 -4 -8 -1 -15 5 -15 6 0 11 5 11 11 0 6 6 9 14 6 8 -3
32 -8 53 -11 36 -5 36 -5 -7 7 -53 15 -58 36 -15 56 l30 15 -27 3 c-33 5 -77
-15 -58 -27 7 -4 8 -10 2 -14 -16 -10 -151 55 -145 71 3 7 1 13 -5 13 -6 0
-12 -4 -14 -9 -2 -6 -33 -1 -73 10 -76 21 -175 25 -206 9 -28 -15 -25 6 4 22
16 9 122 14 400 18 l379 5 19 24 c34 42 19 81 -32 81 -26 0 -45 -22 -33 -41 9
-14 24 -10 18 5 -8 21 16 31 33 13 20 -20 8 -56 -20 -61 -12 -3 -125 -7 -252
-9 -126 -3 -214 -2 -195 2 34 6 35 7 40 64 5 56 18 76 48 77 6 0 12 -7 12 -16
0 -8 -4 -13 -9 -9 -5 3 -12 2 -14 -3 -3 -4 6 -12 19 -19 14 -6 26 -7 30 -2 3
5 -3 9 -13 9 -16 0 -16 1 -2 16 14 13 23 13 63 3 26 -6 43 -15 36 -19 -6 -3
-8 -14 -4 -23 9 -25 23 -21 17 4 -6 20 -3 21 23 16 28 -6 28 -6 -4 9 l-33 14
28 25 c18 15 23 24 14 25 -8 0 -25 -9 -37 -21 -22 -20 -24 -21 -89 -6 -37 9
-69 18 -73 21 -3 3 0 17 6 31 11 23 17 25 64 23 49 -3 53 -1 53 19 0 12 11 33
25 47 13 14 21 29 17 32 -4 4 -15 -3 -25 -16 l-19 -23 -21 34 c-68 111 -176
161 -271 128 -27 -10 -36 -9 -48 4 -15 14 -14 22 7 79 45 123 44 178 -4 178
-21 0 -56 -27 -56 -43 0 -4 9 -7 20 -7 29 0 25 -27 -15 -90 -19 -30 -35 -49
-35 -42 0 9 -39 12 -145 12 -86 0 -154 5 -169 11 -20 9 -33 8 -65 -5 -40 -15
-41 -15 -46 7 -12 57 -11 61 20 67 37 6 38 19 3 59 -16 17 -28 42 -28 56 0 29
-8 32 -25 9 -11 -15 -14 -15 -43 0 -30 16 -32 16 -32 -2z m225 -231 c-3 -6
-22 -11 -41 -11 l-34 0 -2 -52 c0 -29 0 -62 0 -73 2 -16 0 -17 -8 -5 -5 8 -10
45 -10 81 l0 65 51 3 c34 1 49 -2 44 -8z m90 -1 c-3 -5 -22 -10 -41 -10 -19 0
-34 5 -34 10 0 6 18 10 41 10 24 0 38 -4 34 -10z m205 -139 c0 -153 -5 -191
-24 -191 -8 0 -10 46 -8 160 l3 160 -38 1 c-21 1 -57 1 -80 -1 -27 -1 -43 3
-43 10 0 7 30 10 95 9 l95 -1 0 -147z m-322 87 c-2 -21 -8 -33 -18 -33 -10 0
-16 12 -18 33 -3 27 0 32 18 32 18 0 21 -5 18 -32z m70 0 c-4 -46 -28 -49 -28
-4 0 26 4 36 16 36 11 0 14 -8 12 -32z m102 -58 l0 -90 -45 0 -45 0 0 90 0 90
45 0 45 0 0 -90z m110 60 c0 -19 -5 -30 -14 -30 -9 0 -12 7 -9 19 4 15 -2 19
-27 23 -29 4 -31 3 -25 -19 3 -13 1 -23 -5 -23 -5 0 -10 -14 -10 -31 0 -18 4
-28 10 -24 7 4 9 -2 5 -17 -6 -22 -3 -25 24 -25 26 0 31 4 31 24 0 13 5 23 10
23 6 0 10 -16 10 -35 l0 -35 -50 0 -50 0 0 90 0 90 50 0 c49 0 50 -1 50 -30z
m-360 -15 c0 -14 -4 -25 -10 -25 -5 0 -10 11 -10 25 0 14 5 25 10 25 6 0 10
-11 10 -25z m357 -47 c-3 -8 -6 -5 -6 6 -1 11 2 17 5 13 3 -3 4 -12 1 -19z
m-250 6 c-3 -3 -12 -4 -19 -1 -8 3 -5 6 6 6 11 1 17 -2 13 -5z m216 -11 c-7
-2 -19 -2 -25 0 -7 3 -2 5 12 5 14 0 19 -2 13 -5z m-342 -23 c17 -9 19 -22 19
-100 0 -95 4 -103 60 -137 22 -13 30 -25 30 -46 0 -16 -3 -27 -7 -25 -5 2 -47
27 -95 57 l-87 54 5 46 c5 45 42 161 51 161 2 0 13 -5 24 -10z m97 -22 c-3
-36 -30 -46 -36 -15 -5 26 5 47 23 47 12 0 15 -8 13 -32z m67 -3 c0 -16 -6
-30 -12 -32 -9 -3 -13 7 -13 32 0 25 4 35 13 33 6 -3 12 -17 12 -33z m339 -64
c18 -12 45 -21 59 -21 54 0 37 -80 -21 -99 -20 -7 -43 -15 -51 -18 -9 -3 -11
-1 -7 6 4 6 1 11 -8 11 -8 0 -16 6 -19 13 -2 6 -8 8 -13 4 -5 -5 -1 -13 9 -18
25 -14 21 -25 -13 -39 -17 -7 -48 -25 -69 -41 l-39 -28 -4 28 c-4 24 2 32 39
56 24 15 48 35 53 45 6 10 10 53 10 96 l0 77 20 -26 c11 -14 35 -35 54 -46z
m-458 2 l-6 -28 14 24 c13 23 13 20 12 -34 -1 -56 1 -60 31 -80 35 -21 42 -35
19 -35 -8 0 -30 16 -50 35 -32 30 -36 41 -36 83 0 44 5 62 18 62 2 0 1 -12 -2
-27z m123 0 c0 -11 -3 -13 -6 -5 -6 16 -23 15 -23 -2 0 -17 -34 -10 -51 10 -9
12 -4 14 35 14 37 0 46 -3 45 -17z m101 2 c0 -8 -7 -15 -15 -15 -9 0 -15 -9
-15 -25 0 -22 -3 -24 -24 -15 -17 6 -26 5 -30 -3 -2 -7 -5 7 -5 31 l-1 42 45
0 c33 0 45 -4 45 -15z m110 0 c0 -8 -7 -15 -15 -15 -8 0 -15 -4 -15 -10 0 -5
7 -7 16 -3 12 5 15 -1 12 -28 -2 -26 -12 -39 -43 -61 -22 -15 -43 -27 -47 -28
-5 0 -8 23 -8 50 0 30 4 50 11 50 8 0 9 -11 5 -32 -5 -29 -4 -31 8 -15 14 18
32 24 21 7 -3 -5 3 -10 13 -10 19 0 32 18 32 46 0 8 -6 11 -15 8 -10 -4 -15 0
-15 15 0 22 -24 29 -35 11 -10 -17 -25 -11 -25 10 0 17 7 20 50 20 38 0 50 -4
50 -15z m-130 -167 c-17 -14 -26 -15 -46 -6 -19 9 -24 19 -24 47 0 31 1 33 13
17 10 -13 20 -16 41 -10 26 6 28 10 23 45 -3 21 -2 41 2 44 3 4 7 -22 9 -57 3
-54 0 -65 -18 -80z m429 118 c10 -12 7 -18 -18 -31 -33 -17 -39 -8 -19 25 15
24 22 25 37 6z m-569 -46 c0 -19 29 -10 35 10 11 34 25 22 25 -20 0 -22 -4
-40 -8 -40 -15 0 -92 59 -92 70 0 7 7 7 20 0 11 -6 20 -15 20 -20z m585 -11
c-4 -5 -16 -9 -28 -9 -21 1 -21 1 -3 15 20 15 41 11 31 -6z m-307 -13 c-57
-40 -68 -46 -68 -34 0 16 51 49 63 41 5 -3 7 -6 5 -7z m312 -44 c0 -49 -21
-78 -64 -86 -19 -4 -36 -11 -38 -17 -2 -5 -53 -13 -113 -16 -120 -6 -161 -20
-171 -57 -7 -30 -44 -67 -44 -45 1 29 39 97 75 133 l37 37 67 -6 c63 -7 65 -6
43 10 -16 12 -32 15 -55 10 -31 -6 -31 -6 -11 9 26 19 124 58 135 54 4 -2 -5
-24 -21 -50 -24 -38 -38 -49 -72 -59 -67 -19 -67 -29 -1 -29 l61 0 35 75 36
75 51 0 50 0 0 -38z m-766 22 c9 -3 16 -13 16 -21 0 -10 6 -13 15 -9 17 6 84
-31 128 -73 35 -32 83 -100 98 -138 l10 -28 -25 24 c-13 12 -27 34 -30 47 -4
13 -15 28 -26 34 -10 6 -17 17 -14 24 9 23 -16 31 -116 36 -93 5 -95 6 -98 31
-3 24 12 79 22 79 2 0 11 -3 20 -6z m376 -16 c0 -18 -68 -60 -82 -52 -7 4 -8
3 -4 -4 4 -7 5 -12 1 -12 -11 0 -85 53 -85 61 0 13 9 11 46 -12 l34 -21 42 25
c24 14 44 25 46 26 1 1 2 -5 2 -11z m-606 -22 c-3 -9 -12 -16 -20 -16 -8 0
-14 -6 -14 -14 0 -7 -10 -16 -21 -19 -18 -5 -14 2 16 33 40 41 50 45 39 16z
m468 -63 c-2 -16 2 -41 7 -56 14 -37 9 -34 -26 16 -23 31 -30 50 -26 70 5 26
7 27 27 14 15 -10 20 -23 18 -44z m138 14 c0 -18 -14 -59 -31 -91 -35 -64 -52
-71 -20 -7 12 22 21 58 21 79 0 21 3 42 7 45 14 15 23 5 23 -26z m-50 -42 c0
-41 -24 -90 -40 -80 -4 3 -10 0 -12 -7 -3 -7 -7 -5 -11 6 -4 10 -3 15 3 11 12
-7 14 8 3 19 -5 4 -8 27 -8 49 0 41 1 42 33 43 31 0 32 -1 32 -41z m-152 -52
c35 -21 22 -24 -28 -6 -33 11 -67 14 -125 10 -45 -3 -87 -2 -95 3 -10 6 11 10
60 13 99 4 160 -2 188 -20z m132 -83 c0 -11 -4 -20 -10 -20 -5 0 -10 9 -10 20
0 11 5 20 10 20 6 0 10 -9 10 -20z m388 -85 c2 -9 -2 -22 -8 -29 -9 -8 -11 -6
-5 12 9 30 -22 43 -41 17 -11 -14 -14 -15 -14 -4 0 39 61 43 68 4z m-775 18
c-7 -2 -13 -14 -14 -26 0 -12 -3 -16 -6 -9 -7 18 4 42 19 41 10 0 10 -2 1 -6z
m38 -26 c-10 -9 -11 -8 -5 6 3 10 9 15 12 12 3 -3 0 -11 -7 -18z m-1 -27 c0
-5 -7 -10 -15 -10 -8 0 -15 5 -15 10 0 6 7 10 15 10 8 0 15 -4 15 -10z m455 1
c22 -5 34 -9 27 -10 -7 0 -10 -6 -7 -11 8 -13 -3 -50 -15 -50 -5 0 -14 16 -20
36 -8 24 -16 32 -22 26 -7 -7 -5 -20 3 -38 10 -21 24 -30 54 -36 21 -5 45 -6
52 -4 7 3 13 1 13 -4 0 -6 6 -10 14 -10 8 0 15 14 18 35 3 24 0 35 -9 35 -7 0
-13 -10 -13 -23 0 -18 -6 -23 -30 -25 -28 -2 -29 -1 -23 30 3 18 7 35 9 37 2
2 38 -2 80 -8 42 -7 92 -10 110 -6 34 6 34 5 28 -22 -17 -70 -20 -73 -71 -73
-27 0 -94 9 -151 20 -130 25 -233 25 -347 0 -116 -26 -167 -33 -182 -23 -6 4
-14 29 -18 56 l-7 47 58 0 c33 1 86 7 119 14 67 16 268 19 330 7z m242 -7 c-3
-3 -12 -4 -19 -1 -8 3 -5 6 6 6 11 1 17 -2 13 -5z m-351 -120 c-5 -13 -10 -14
-18 -6 -6 6 -8 18 -4 28 5 13 10 14 18 6 6 -6 8 -18 4 -28z m71 -18 c-9 -23
-37 -20 -37 3 0 21 20 33 34 20 5 -4 6 -15 3 -23z m-123 9 c-4 -8 -12 -15 -20
-15 -8 0 -14 7 -14 15 0 8 9 15 20 15 13 0 18 -5 14 -15z m76 -82 c0 -8 -11
-13 -29 -13 -29 0 -30 1 -19 31 10 29 11 29 29 13 11 -9 19 -23 19 -31z m-210
-3 c-8 -5 -22 -9 -30 -9 -10 0 -8 3 5 9 27 12 43 12 25 0z m367 -16 c-3 -3
-12 -4 -19 -1 -8 3 -5 6 6 6 11 1 17 -2 13 -5z"/>
<path d="M937 994 c-14 -15 -6 -34 14 -34 14 0 19 5 17 17 -3 18 -20 27 -31
17z"/>
<path d="M950 934 c0 -8 5 -12 10 -9 6 4 8 11 5 16 -9 14 -15 11 -15 -7z"/>
<path d="M965 910 c-3 -5 -1 -10 4 -10 6 0 11 5 11 10 0 6 -2 10 -4 10 -3 0
-8 -4 -11 -10z"/>
<path d="M920 900 c0 -5 5 -10 10 -10 6 0 10 5 10 10 0 6 -4 10 -10 10 -5 0
-10 -4 -10 -10z"/>
<path d="M934 866 c-8 -22 3 -33 18 -18 9 9 9 15 0 24 -9 9 -13 7 -18 -6z"/>
<path d="M716 765 c-9 -24 -7 -55 3 -55 13 0 24 51 13 62 -6 6 -12 3 -16 -7z"/>
<path d="M680 690 c0 -5 5 -10 10 -10 6 0 10 5 10 10 0 6 -4 10 -10 10 -5 0
-10 -4 -10 -10z"/>
<path d="M710 680 c0 -5 5 -10 10 -10 6 0 10 5 10 10 0 6 -4 10 -10 10 -5 0
-10 -4 -10 -10z"/>
<path d="M1220 753 c1 -31 26 -71 37 -58 5 4 2 10 -4 12 -7 3 -13 18 -13 33 0
16 -4 32 -10 35 -6 4 -10 -6 -10 -22z"/>
<path d="M1195 720 c-3 -5 -1 -10 4 -10 6 0 11 5 11 10 0 6 -2 10 -4 10 -3 0
-8 -4 -11 -10z"/>
<path d="M1340 660 c0 -5 5 -10 10 -10 6 0 10 5 10 10 0 6 -4 10 -10 10 -5 0
-10 -4 -10 -10z"/>
<path d="M1380 650 c0 -5 5 -10 10 -10 6 0 10 5 10 10 0 6 -4 10 -10 10 -5 0
-10 -4 -10 -10z"/>
<path d="M1325 630 c3 -5 8 -10 11 -10 2 0 4 5 4 10 0 6 -5 10 -11 10 -5 0 -7
-4 -4 -10z"/>
<path d="M1360 630 c0 -5 5 -10 11 -10 5 0 7 5 4 10 -3 6 -8 10 -11 10 -2 0
-4 -4 -4 -10z"/>
<path d="M665 610 c3 -5 8 -10 11 -10 2 0 4 5 4 10 0 6 -5 10 -11 10 -5 0 -7
-4 -4 -10z"/>
<path d="M700 610 c0 -5 5 -10 10 -10 6 0 10 5 10 10 0 6 -4 10 -10 10 -5 0
-10 -4 -10 -10z"/>
<path d="M840 269 c0 -5 4 -8 9 -4 12 7 25 -31 16 -45 -3 -5 3 -10 14 -10 18
0 19 3 11 26 -13 34 -13 37 5 30 8 -3 15 -1 15 4 0 6 -16 10 -35 10 -19 0 -35
-5 -35 -11z"/>
<path d="M928 245 c-3 -28 -1 -35 14 -35 12 0 16 5 12 18 -5 16 -5 16 6 0 14
-22 56 -23 64 -2 10 26 6 30 -9 10 -18 -24 -37 -11 -29 20 5 18 2 24 -10 24
-10 0 -13 -6 -10 -15 4 -8 1 -15 -5 -15 -6 0 -11 7 -11 15 0 30 -18 14 -22
-20z"/>
<path d="M777 263 c-13 -12 -7 -23 18 -35 13 -6 22 -15 18 -21 -3 -5 0 -8 7
-5 25 8 22 28 -4 38 -31 11 -35 25 -6 17 11 -3 18 -1 14 4 -6 10 -38 12 -47 2z"/>
<path d="M746 245 c4 -8 8 -15 10 -15 2 0 4 7 4 15 0 8 -4 15 -10 15 -5 0 -7
-7 -4 -15z"/>
<path d="M696 223 c9 -39 13 -43 33 -43 19 0 41 18 41 34 0 5 -6 2 -13 -9 -17
-23 -37 -12 -37 21 0 15 -6 24 -15 24 -12 0 -14 -7 -9 -27z"/>
<path d="M1231 227 c-9 -12 -9 -16 1 -20 9 -4 7 -6 -4 -6 -22 -1 -32 -17 -17
-27 8 -4 9 -3 5 4 -4 7 -1 12 8 12 9 0 16 -4 16 -10 0 -5 7 -10 16 -10 11 0
14 6 8 23 -13 43 -19 50 -33 34z"/>
<path d="M640 221 c0 -5 -3 -16 -6 -25 -3 -9 -1 -16 6 -16 6 0 8 5 4 13 -4 6
2 4 13 -5 32 -29 46 -21 21 12 -22 30 -38 39 -38 21z"/>
<path d="M780 204 c0 -8 5 -12 10 -9 6 4 8 11 5 16 -9 14 -15 11 -15 -7z"/>
<path d="M857 1194 c-11 -11 3 -24 24 -24 11 0 17 5 14 10 -3 6 1 10 9 10 9 0
16 -4 16 -10 0 -5 12 -10 26 -10 14 0 23 4 19 10 -3 6 1 10 9 10 8 0 18 -4 21
-10 3 -5 15 -10 26 -10 11 0 17 5 14 10 -3 6 -2 10 4 10 5 0 12 -5 14 -10 3
-6 4 -5 3 2 -3 14 -186 25 -199 12z"/>
<path d="M1651 1060 c0 -14 6 -36 14 -50 l14 -25 1 31 c0 16 -7 39 -15 50 -14
18 -14 18 -14 -6z"/>
<path d="M240 1032 c0 -35 -4 -45 -20 -49 -11 -3 -20 -9 -20 -14 0 -12 17 -11
25 1 4 6 10 8 15 5 19 -11 27 59 10 85 -7 11 -10 3 -10 -28z"/>
<path d="M1690 1030 c0 -5 7 -10 15 -10 8 0 15 5 15 10 0 6 -7 10 -15 10 -8 0
-15 -4 -15 -10z"/>
<path d="M200 1010 c0 -5 5 -10 10 -10 6 0 10 5 10 10 0 6 -4 10 -10 10 -5 0
-10 -4 -10 -10z"/>
<path d="M1720 996 c0 -9 5 -16 10 -16 6 0 10 4 10 9 0 6 -4 13 -10 16 -5 3
-10 -1 -10 -9z"/>
<path d="M1645 991 c-3 -5 -1 -12 5 -16 5 -3 10 1 10 9 0 18 -6 21 -15 7z"/>
<path d="M1682 984 c-7 -8 -12 -20 -9 -27 2 -6 -5 -20 -15 -31 -24 -26 -23
-39 2 -26 26 14 44 47 29 52 -8 3 -6 10 5 20 9 9 16 19 16 22 0 11 -15 5 -28
-10z"/>
<path d="M270 979 c0 -5 5 -7 10 -4 6 3 10 8 10 11 0 2 -4 4 -10 4 -5 0 -10
-5 -10 -11z"/>
<path d="M1510 956 c0 -19 5 -38 10 -41 6 -4 10 8 10 29 0 19 -4 38 -10 41 -6
4 -10 -8 -10 -29z"/>
<path d="M1590 957 c0 -13 7 -32 15 -43 14 -18 14 -18 15 8 0 32 -9 58 -21 58
-5 0 -9 -10 -9 -23z"/>
<path d="M2215 945 c-46 -109 -98 -211 -112 -222 -14 -11 -9 -13 33 -12 27 1
41 3 32 6 -21 5 -24 43 -6 61 20 20 86 15 98 -7 15 -29 12 -49 -7 -54 -10 -3
14 -5 52 -6 39 0 64 3 57 7 -7 5 -38 64 -68 133 -31 68 -58 126 -60 128 -2 2
-11 -13 -19 -34z m11 -101 c18 -43 16 -46 -24 -42 l-30 3 15 38 c8 20 17 37
20 37 2 0 11 -16 19 -36z"/>
<path d="M3364 966 c-10 -26 4 -48 28 -44 17 2 23 10 23 28 0 18 -6 26 -23 28
-13 2 -25 -3 -28 -12z"/>
<path d="M4023 960 c-40 -24 -63 -67 -63 -120 0 -85 53 -133 145 -134 74 -1
105 10 105 37 0 38 11 66 29 70 9 3 -15 5 -53 6 -59 1 -67 -1 -52 -12 12 -9
17 -23 14 -47 -3 -31 -7 -35 -34 -38 -19 -2 -40 4 -55 17 -22 17 -24 27 -24
99 0 95 16 122 72 122 44 0 69 -14 87 -48 15 -27 15 -27 15 23 1 30 -3 45 -7
37 -7 -10 -15 -10 -36 -2 -43 16 -108 12 -143 -10z"/>
<path d="M3248 958 c16 -16 16 -220 0 -236 -9 -9 11 -12 93 -11 57 0 98 3 92
6 -9 3 -13 31 -13 89 l0 84 -42 -1 c-24 0 -37 -3 -30 -6 8 -3 12 -30 12 -85 0
-77 -1 -79 -22 -76 -22 3 -23 7 -26 126 l-3 122 -36 0 c-29 0 -34 -3 -25 -12z"/>
<path d="M230 950 c0 -5 -7 -7 -16 -3 -14 5 -15 3 -5 -14 10 -20 31 -33 53
-33 6 0 4 8 -4 18 -9 9 -13 23 -11 30 3 6 0 12 -6 12 -6 0 -11 -4 -11 -10z"/>
<path d="M260 950 c0 -5 5 -10 10 -10 6 0 10 5 10 10 0 6 -4 10 -10 10 -5 0
-10 -4 -10 -10z"/>
<path d="M2777 914 c-26 -29 -33 -44 -23 -44 12 0 16 -16 18 -77 3 -77 3 -78
31 -81 28 -3 57 12 57 30 0 7 -5 6 -13 -1 -21 -17 -27 -3 -27 66 0 56 2 63 20
63 11 0 20 5 20 10 0 6 -9 10 -19 10 -15 0 -21 8 -23 34 l-3 34 -38 -44z"/>
<path d="M5947 916 c-21 -22 -33 -42 -28 -44 6 -2 11 -30 11 -63 0 -33 5 -69
10 -80 12 -22 59 -26 78 -7 16 16 15 33 -1 19 -21 -17 -27 -3 -27 66 0 56 2
63 20 63 11 0 20 5 20 10 0 6 -9 10 -19 10 -15 0 -21 8 -23 33 l-3 33 -38 -40z"/>
<path d="M1681 894 c-26 -33 -27 -48 -2 -34 19 10 37 47 28 56 -3 3 -14 -7
-26 -22z"/>
<path d="M180 890 c14 -11 34 -20 45 -19 19 0 19 1 -4 19 -13 11 -33 20 -45
20 -20 0 -20 -1 4 -20z"/>
<path d="M1580 900 c0 -5 5 -10 10 -10 6 0 10 5 10 10 0 6 -4 10 -10 10 -5 0
-10 -4 -10 -10z"/>
<path d="M360 890 c0 -5 5 -10 11 -10 5 0 7 5 4 10 -3 6 -8 10 -11 10 -2 0 -4
-4 -4 -10z"/>
<path d="M2617 882 c-31 -34 -20 -72 29 -103 20 -12 34 -29 34 -40 0 -27 -25
-23 -55 9 l-26 27 7 -30 c8 -36 3 -31 41 -38 23 -5 38 -1 57 14 38 30 33 56
-21 105 -39 36 -44 44 -29 50 11 4 26 -2 42 -17 l26 -24 -4 29 c-3 26 -7 30
-44 33 -30 3 -45 -1 -57 -15z"/>
<path d="M2972 878 c-19 -19 -22 -20 -22 -5 0 13 -9 17 -37 17 -29 0 -34 -3
-25 -12 7 -7 12 -40 12 -78 0 -38 -5 -71 -12 -78 -9 -9 0 -12 42 -12 47 0 52
2 35 13 -15 11 -17 23 -13 66 6 61 20 80 43 61 19 -16 39 -1 33 26 -5 27 -30
28 -56 2z"/>
<path d="M3093 890 c-44 -18 -50 -77 -7 -68 14 3 18 11 17 31 -1 20 3 27 17
27 16 0 30 -18 30 -40 0 -4 -20 -20 -45 -34 -43 -26 -65 -62 -50 -85 9 -15 58
-14 73 1 9 9 15 9 24 0 17 -17 53 -15 68 3 10 12 10 15 -4 15 -13 0 -16 12
-16 63 0 49 -4 68 -18 80 -20 18 -54 21 -89 7z m55 -117 c-4 -32 -38 -46 -38
-16 0 20 18 43 33 43 4 0 7 -12 5 -27z"/>
<path d="M3490 887 c-34 -17 -35 -61 -2 -65 21 -3 23 0 20 25 -2 22 1 28 17
28 14 0 21 -8 23 -25 2 -21 -4 -29 -42 -47 -24 -12 -47 -31 -51 -43 -13 -40
31 -64 75 -40 13 7 21 7 25 0 9 -15 51 -12 64 4 9 10 8 15 -4 20 -11 4 -15 21
-15 70 0 54 -3 67 -19 76 -26 13 -60 12 -91 -3z m56 -133 c-3 -8 -10 -14 -16
-14 -20 0 -22 31 -4 52 l19 20 3 -22 c2 -12 1 -28 -2 -36z"/>
<path d="M3747 893 c-4 -4 -31 -6 -60 -5 -28 0 -46 -1 -39 -4 8 -4 12 -31 12
-84 0 -53 -4 -80 -12 -83 -7 -3 12 -5 42 -5 30 0 49 2 43 5 -9 3 -13 28 -13
74 0 55 3 71 16 76 9 3 20 0 25 -8 12 -19 11 -106 -1 -130 -10 -18 -7 -19 37
-19 36 0 44 3 35 12 -7 7 -12 40 -12 79 0 48 -5 72 -16 83 -16 17 -46 21 -57
9z"/>
<path d="M4304 888 c-48 -23 -59 -109 -20 -154 53 -63 146 -20 146 67 0 72
-66 117 -126 87z m64 -78 c2 -71 -7 -96 -32 -87 -13 5 -16 21 -16 75 0 72 4
85 30 80 11 -2 16 -19 18 -68z"/>
<path d="M4675 875 c-32 -31 -35 -110 -6 -146 26 -32 86 -32 113 0 19 25 16
43 -4 23 -19 -19 -45 -14 -62 10 -27 39 -20 48 35 48 51 0 51 0 45 28 -15 60
-79 80 -121 37z m73 -28 c3 -23 0 -27 -22 -27 -26 0 -32 13 -20 45 10 25 39
13 42 -18z"/>
<path d="M4912 878 c-19 -19 -22 -20 -22 -5 0 13 -9 17 -37 17 -29 0 -34 -3
-25 -12 7 -7 12 -40 12 -78 0 -38 -5 -71 -12 -78 -9 -9 0 -12 42 -12 47 0 52
2 35 13 -15 11 -17 23 -13 66 6 61 20 80 43 61 19 -16 39 -1 33 26 -5 27 -30
28 -56 2z"/>
<path d="M5086 891 c-3 -5 -27 -6 -53 -4 -40 5 -46 3 -35 -8 16 -17 16 -141 0
-157 -9 -9 -1 -12 37 -12 38 0 46 3 37 12 -17 17 -15 123 3 138 8 6 19 9 25 5
14 -9 13 -128 -2 -143 -9 -9 -1 -12 35 -12 44 0 47 1 37 19 -5 11 -10 48 -10
83 0 37 -5 69 -12 76 -14 14 -54 16 -62 3z"/>
<path d="M5306 893 c-3 -4 -25 -6 -49 -5 l-42 3 3 -82 c3 -60 0 -84 -10 -90
-8 -5 9 -8 42 -8 30 0 49 3 43 6 -19 7 -17 127 2 143 8 6 19 9 25 5 14 -9 13
-128 -2 -143 -9 -9 0 -12 43 -12 35 0 49 3 40 9 -18 12 -26 102 -12 130 14 25
36 28 45 5 11 -28 6 -120 -6 -132 -9 -9 -1 -12 37 -12 38 0 46 3 37 12 -7 7
-12 42 -12 85 0 69 -1 74 -26 85 -21 10 -31 9 -54 -4 -25 -14 -31 -14 -41 -2
-12 15 -51 19 -63 7z"/>
<path d="M5559 871 c-48 -49 -35 -140 23 -160 31 -11 53 -6 81 17 25 22 21 35
-6 17 -21 -13 -25 -13 -45 1 -12 8 -22 26 -22 40 0 22 4 24 45 24 40 0 45 2
45 23 0 29 -39 67 -69 67 -12 0 -36 -13 -52 -29z m73 -16 c6 -28 1 -35 -23
-35 -24 0 -32 16 -19 40 15 28 37 25 42 -5z"/>
<path d="M5802 891 c-8 -5 -35 -7 -60 -5 -26 2 -41 1 -34 -2 16 -8 17 -145 0
-162 -9 -9 -1 -12 35 -12 44 0 47 1 37 19 -5 11 -10 38 -10 61 0 48 14 80 35
80 20 0 22 -146 3 -153 -7 -3 12 -5 42 -5 30 0 49 2 43 5 -9 3 -13 29 -13 77
0 58 -4 76 -18 89 -20 19 -40 21 -60 8z"/>
<path d="M325 880 c3 -5 8 -10 11 -10 2 0 4 5 4 10 0 6 -5 10 -11 10 -5 0 -7
-4 -4 -10z"/>
<path d="M2388 883 c8 -3 12 -29 12 -79 0 -67 2 -75 25 -90 13 -8 29 -12 36
-8 7 4 37 7 68 6 31 0 50 2 44 4 -9 4 -13 32 -13 90 l0 84 -32 0 -33 0 3 -65
c4 -64 -9 -102 -29 -89 -5 3 -9 39 -9 80 l0 74 -42 -1 c-24 0 -37 -3 -30 -6z"/>
<path d="M4446 884 c7 -3 28 -45 49 -94 21 -49 41 -87 45 -85 4 3 20 35 35 72
14 38 33 78 41 91 14 21 13 22 -11 22 -17 0 -24 -4 -19 -11 7 -12 -15 -89 -26
-89 -4 0 -14 19 -23 42 -13 33 -14 44 -4 50 6 4 -12 7 -43 7 -30 0 -50 -3 -44
-5z"/>
<path d="M180 878 c-2 -5 -3 -11 -4 -15 -1 -5 -5 -14 -10 -21 -6 -10 2 -12 36
-10 23 1 53 -1 66 -6 14 -4 22 -3 22 3 0 6 -7 11 -15 11 -8 0 -15 5 -15 10 0
6 -15 10 -34 10 -19 0 -37 6 -39 13 -3 6 -6 9 -7 5z"/>
<path d="M1590 870 c0 -5 5 -10 10 -10 6 0 10 5 10 10 0 6 -4 10 -10 10 -5 0
-10 -4 -10 -10z"/>
<path d="M1620 870 c0 -5 5 -10 10 -10 6 0 10 5 10 10 0 6 -4 10 -10 10 -5 0
-10 -4 -10 -10z"/>
<path d="M370 860 c0 -5 5 -10 10 -10 6 0 10 5 10 10 0 6 -4 10 -10 10 -5 0
-10 -4 -10 -10z"/>
<path d="M1713 835 c7 -14 15 -25 20 -25 11 0 9 18 -3 25 -6 4 -8 11 -5 16 4
5 0 9 -8 9 -13 0 -13 -4 -4 -25z"/>
<path d="M1745 850 c-3 -5 -1 -10 4 -10 6 0 11 5 11 10 0 6 -2 10 -4 10 -3 0
-8 -4 -11 -10z"/>
<path d="M1675 830 c3 -5 8 -10 11 -10 2 0 4 5 4 10 0 6 -5 10 -11 10 -5 0 -7
-4 -4 -10z"/>
<path d="M250 810 c0 -5 5 -10 11 -10 5 0 7 5 4 10 -3 6 -8 10 -11 10 -2 0 -4
-4 -4 -10z"/>
<path d="M1657 803 c18 -9 36 -13 40 -9 11 10 -18 26 -47 25 -24 0 -23 -1 7
-16z"/>
<path d="M350 780 c0 -5 5 -10 10 -10 6 0 10 5 10 10 0 6 -4 10 -10 10 -5 0
-10 -4 -10 -10z"/>
<path d="M364 755 c-16 -12 -17 -14 -2 -15 23 0 48 11 48 21 0 14 -24 11 -46
-6z"/>
<path d="M170 721 c0 -12 9 -26 19 -33 11 -6 17 -19 14 -27 -4 -14 -3 -14 5
-2 8 11 6 23 -4 42 -18 36 -34 45 -34 20z"/>
<path d="M1695 683 c-14 -16 -20 -30 -14 -32 11 -3 59 37 59 51 0 16 -20 8
-45 -19z"/>
<path d="M160 680 c0 -5 5 -10 10 -10 6 0 10 5 10 10 0 6 -4 10 -10 10 -5 0
-10 -4 -10 -10z"/>
<path d="M245 680 c3 -5 20 -10 36 -10 18 0 28 4 24 10 -3 6 -20 10 -36 10
-18 0 -28 -4 -24 -10z"/>
<path d="M1790 670 c0 -5 5 -10 10 -10 6 0 10 5 10 10 0 6 -4 10 -10 10 -5 0
-10 -4 -10 -10z"/>
<path d="M100 660 c0 -5 5 -10 10 -10 6 0 10 5 10 10 0 6 -4 10 -10 10 -5 0
-10 -4 -10 -10z"/>
<path d="M140 650 c0 -5 5 -10 10 -10 6 0 10 5 10 10 0 6 -4 10 -10 10 -5 0
-10 -4 -10 -10z"/>
<path d="M170 649 c0 -5 5 -7 10 -4 6 3 10 8 10 11 0 2 -4 4 -10 4 -5 0 -10
-5 -10 -11z"/>
<path d="M1720 650 c0 -5 5 -10 10 -10 6 0 10 5 10 10 0 6 -4 10 -10 10 -5 0
-10 -4 -10 -10z"/>
<path d="M1550 630 c0 -5 5 -10 11 -10 5 0 7 5 4 10 -3 6 -8 10 -11 10 -2 0
-4 -4 -4 -10z"/>
<path d="M120 620 c-11 -7 -6 -10 22 -10 20 0 40 5 43 10 8 13 -45 13 -65 0z"/>
<path d="M1710 620 c0 -5 21 -10 46 -10 27 0 43 4 39 10 -3 6 -24 10 -46 10
-21 0 -39 -4 -39 -10z"/>
<path d="M1650 599 c0 -5 5 -7 10 -4 6 3 10 8 10 11 0 2 -4 4 -10 4 -5 0 -10
-5 -10 -11z"/>
<path d="M230 590 c0 -5 5 -10 11 -10 5 0 7 5 4 10 -3 6 -8 10 -11 10 -2 0 -4
-4 -4 -10z"/>
<path d="M260 590 c0 -5 5 -10 10 -10 6 0 10 5 10 10 0 6 -4 10 -10 10 -5 0
-10 -4 -10 -10z"/>
<path d="M1540 592 c0 -9 25 -33 48 -46 19 -11 14 12 -8 34 -21 21 -40 26 -40
12z"/>
<path d="M1710 591 c0 -17 42 -40 54 -30 6 5 20 16 31 24 18 13 18 14 3 15
-10 0 -18 -4 -18 -8 0 -10 -36 -9 -46 1 -10 10 -24 9 -24 -2z"/>
<path d="M1790 560 c0 -5 5 -10 10 -10 6 0 10 5 10 10 0 6 -4 10 -10 10 -5 0
-10 -4 -10 -10z"/>
<path d="M2090 520 c0 -7 1013 -10 3020 -10 2007 0 3020 3 3020 10 0 7 -1013
10 -3020 10 -2007 0 -3020 -3 -3020 -10z"/>
<path d="M1340 480 c-11 -7 -7 -10 17 -10 17 0 35 5 38 10 8 13 -35 13 -55 0z"/>
<path d="M1450 448 l-25 -11 23 -5 c28 -4 52 4 52 18 0 13 -18 12 -50 -2z"/>
<path d="M275 431 c23 -27 83 -54 102 -47 16 6 17 26 2 26 -5 0 -7 -4 -4 -10
13 -20 -27 -9 -48 14 -12 13 -33 27 -47 31 l-25 8 20 -22z"/>
<path d="M366 441 c-4 -5 -2 -12 3 -15 5 -4 12 -2 15 3 4 5 2 12 -3 15 -5 4
-12 2 -15 -3z"/>
<path d="M135 418 c14 -23 38 -48 47 -48 14 0 -11 39 -33 51 -17 9 -20 8 -14
-3z"/>
<path d="M705 418 c-4 -10 -3 -30 3 -45 l10 -28 7 27 c4 15 2 35 -3 45 -10 17
-11 17 -17 1z"/>
<path d="M1490 405 c0 -8 5 -15 10 -15 6 0 10 7 10 15 0 8 -4 15 -10 15 -5 0
-10 -7 -10 -15z"/>
<path d="M235 390 c10 -11 25 -20 34 -20 12 1 10 5 -8 20 -30 26 -49 26 -26 0z"/>
<path d="M410 400 c0 -5 5 -10 10 -10 6 0 10 5 10 10 0 6 -4 10 -10 10 -5 0
-10 -4 -10 -10z"/>
<path d="M1651 383 c-12 -14 -19 -28 -16 -31 6 -6 55 38 55 50 0 16 -19 7 -39
-19z"/>
<path d="M90 390 c0 -5 5 -10 10 -10 6 0 10 5 10 10 0 6 -4 10 -10 10 -5 0
-10 -4 -10 -10z"/>
<path d="M1740 379 c-8 -14 -15 -17 -23 -10 -14 11 -55 -14 -42 -26 4 -5 10
-2 12 5 3 6 11 12 18 12 7 0 16 -6 19 -12 3 -9 11 -6 25 11 12 13 21 27 21 32
0 17 -19 9 -30 -12z"/>
<path d="M50 380 c0 -5 5 -10 10 -10 6 0 10 5 10 10 0 6 -4 10 -10 10 -5 0
-10 -4 -10 -10z"/>
<path d="M120 380 c0 -5 5 -10 10 -10 6 0 10 5 10 10 0 6 -4 10 -10 10 -5 0
-10 -4 -10 -10z"/>
<path d="M661 374 c0 -11 3 -14 6 -6 3 7 2 16 -1 19 -3 4 -6 -2 -5 -13z"/>
<path d="M220 370 c0 -5 5 -10 10 -10 6 0 10 5 10 10 0 6 -4 10 -10 10 -5 0
-10 -4 -10 -10z"/>
<path d="M1770 370 c0 -5 5 -10 10 -10 6 0 10 5 10 10 0 6 -4 10 -10 10 -5 0
-10 -4 -10 -10z"/>
<path d="M1800 370 c0 -5 5 -10 10 -10 6 0 10 5 10 10 0 6 -4 10 -10 10 -5 0
-10 -4 -10 -10z"/>
<path d="M75 361 c-3 -5 -1 -12 5 -16 5 -3 10 1 10 9 0 18 -6 21 -15 7z"/>
<path d="M105 350 c4 -6 11 -8 16 -5 14 9 11 15 -7 15 -8 0 -12 -5 -9 -10z"/>
<path d="M165 350 c-3 -5 -14 -10 -23 -10 -9 0 -28 -9 -42 -20 -23 -18 -24
-20 -5 -20 11 0 31 7 43 16 12 8 35 22 50 30 25 13 25 14 5 14 -12 0 -25 -4
-28 -10z"/>
<path d="M230 341 c0 -6 5 -13 11 -16 7 -5 2 -16 -12 -31 -18 -20 -19 -24 -6
-24 9 0 23 10 31 22 18 25 21 42 6 33 -5 -3 -10 -2 -10 4 0 5 12 12 28 14 22
3 20 4 -10 6 -21 0 -38 -3 -38 -8z"/>
<path d="M390 339 c0 -5 5 -7 10 -4 6 3 10 8 10 11 0 2 -4 4 -10 4 -5 0 -10
-5 -10 -11z"/>
<path d="M1749 331 c-15 -17 -15 -19 2 -30 10 -6 26 -11 35 -11 15 0 16 2 2
18 -9 9 -13 23 -11 30 7 17 -9 13 -28 -7z"/>
<path d="M1790 340 c0 -5 5 -10 10 -10 6 0 10 5 10 10 0 6 -4 10 -10 10 -5 0
-10 -4 -10 -10z"/>
<path d="M2103 333 c15 -4 17 -18 17 -113 0 -95 -2 -109 -17 -113 -10 -3 16
-5 57 -6 99 -1 139 18 160 77 13 37 13 47 0 85 -21 58 -61 77 -160 76 -41 -1
-67 -3 -57 -6z m141 -35 c10 -14 16 -44 16 -78 0 -65 -20 -100 -56 -100 -24 0
-24 1 -24 100 0 99 0 100 24 100 14 0 32 -10 40 -22z"/>
<path d="M4172 328 c-7 -7 -12 -22 -12 -35 0 -13 -7 -26 -16 -30 -15 -5 -15
-7 0 -15 22 -12 22 -110 0 -132 -14 -15 -11 -16 38 -16 41 1 49 3 36 11 -25
14 -26 124 -2 137 15 8 15 10 0 15 -18 7 -22 52 -6 62 6 3 10 -1 10 -9 0 -9 9
-16 20 -16 13 0 20 7 20 20 0 16 -7 20 -38 20 -21 0 -43 -5 -50 -12z"/>
<path d="M4338 330 c21 -9 22 -15 22 -110 0 -95 -1 -101 -22 -110 -17 -6 -5
-9 47 -9 39 1 63 3 55 6 -23 9 -30 24 -30 66 0 34 3 38 22 35 12 -2 28 -14 35
-28 12 -23 13 -19 13 40 0 59 -1 63 -13 40 -7 -14 -23 -26 -35 -28 -20 -3 -22
1 -22 43 l0 46 42 -3 c34 -2 45 -8 55 -28 12 -24 13 -24 13 13 l0 37 -102 -1
c-72 0 -96 -3 -80 -9z"/>
<path d="M5024 325 c-8 -19 3 -35 26 -35 19 0 34 25 24 41 -8 14 -44 10 -50
-6z"/>
<path d="M5600 243 c-23 -54 -52 -108 -63 -120 l-20 -23 43 0 c39 0 42 2 26
13 -13 10 -16 20 -12 35 6 18 15 22 51 22 40 0 45 -3 51 -26 4 -17 2 -29 -7
-35 -9 -6 7 -9 45 -9 56 0 58 1 43 18 -8 9 -34 60 -56 112 -23 52 -45 98 -50
103 -4 4 -27 -36 -51 -90z m48 -35 c11 -28 11 -28 -24 -28 -19 0 -33 4 -30 9
3 4 10 21 16 36 11 30 19 26 38 -17z"/>
<path d="M5816 318 c-9 -12 -16 -30 -16 -39 0 -10 -6 -20 -12 -22 -10 -4 -10
-6 0 -6 8 -1 12 -22 12 -70 0 -46 -4 -71 -12 -74 -7 -3 12 -6 42 -6 42 0 51 2
38 10 -25 14 -26 124 -2 137 15 8 15 10 0 15 -18 7 -22 52 -6 62 6 3 10 -1 10
-9 0 -9 9 -16 20 -16 13 0 20 7 20 20 0 30 -73 29 -94 -2z"/>
<path d="M5938 329 c-10 -5 -18 -21 -18 -34 0 -13 -7 -28 -16 -33 -15 -8 -15
-10 0 -15 24 -9 23 -122 -1 -136 -14 -8 -5 -10 37 -10 30 0 49 3 43 6 -9 3
-13 28 -13 73 0 45 4 70 13 73 10 4 10 6 0 6 -8 1 -13 15 -13 38 0 33 1 35 14
18 14 -20 51 -14 44 8 -6 15 -67 20 -90 6z"/>
<path d="M6194 325 c-8 -20 4 -35 27 -35 14 0 19 7 19 25 0 18 -5 25 -20 25
-11 0 -23 -7 -26 -15z"/>
<path d="M7098 333 c6 -2 12 -19 12 -37 0 -30 -2 -32 -29 -28 -44 6 -71 -26
-71 -86 0 -65 18 -81 91 -81 58 0 90 11 70 23 -7 5 -11 46 -11 112 l0 104 -37
-1 c-21 0 -32 -3 -25 -6z m10 -146 c2 -46 0 -59 -14 -64 -22 -8 -34 14 -34 68
0 50 6 61 30 57 11 -2 16 -18 18 -61z"/>
<path d="M7270 303 l1 -38 15 28 c10 18 23 27 39 27 25 0 25 0 25 -100 0 -84
-3 -101 -17 -109 -14 -8 -2 -10 47 -10 49 0 61 2 48 10 -15 8 -18 25 -18 109
l0 100 25 0 c18 0 28 -7 35 -25 13 -35 20 -31 20 10 l0 35 -110 0 -110 0 0
-37z"/>
<path d="M7898 328 c7 -7 12 -25 12 -40 0 -25 -3 -28 -24 -22 -35 8 -63 -10
-76 -51 -14 -42 1 -101 28 -109 22 -7 130 -1 139 8 3 3 1 6 -5 6 -9 0 -12 33
-12 110 l0 110 -37 0 c-29 0 -34 -3 -25 -12z m10 -133 c3 -56 -8 -81 -32 -72
-12 5 -16 20 -16 60 0 58 5 69 30 65 11 -2 16 -17 18 -53z"/>
<path d="M205 320 c-3 -5 -1 -10 4 -10 6 0 11 5 11 10 0 6 -2 10 -4 10 -3 0
-8 -4 -11 -10z"/>
<path d="M345 310 c3 -5 8 -10 11 -10 2 0 4 5 4 10 0 6 -5 10 -11 10 -5 0 -7
-4 -4 -10z"/>
<path d="M380 310 c0 -5 5 -10 10 -10 6 0 10 5 10 10 0 6 -4 10 -10 10 -5 0
-10 -4 -10 -10z"/>
<path d="M1540 310 c0 -5 5 -10 10 -10 6 0 10 5 10 10 0 6 -4 10 -10 10 -5 0
-10 -4 -10 -10z"/>
<path d="M1640 310 c0 -13 40 -53 47 -47 6 7 -19 46 -34 51 -7 3 -13 1 -13 -4z"/>
<path d="M1685 311 c-6 -11 9 -23 19 -14 9 9 7 23 -3 23 -6 0 -12 -4 -16 -9z"/>
<path d="M3048 290 c-22 -25 -32 -29 -53 -24 -18 4 -32 1 -45 -11 -12 -11 -20
-13 -20 -7 0 7 -12 12 -27 12 l-28 0 0 -80 0 -80 39 0 c31 0 37 3 28 12 -13
13 -16 59 -6 96 6 19 11 22 34 17 20 -4 29 -2 33 9 14 36 27 13 27 -47 0 -36
5 -68 12 -75 15 -15 51 -15 66 0 16 16 15 33 -1 19 -21 -17 -27 -3 -27 57 0
47 3 55 22 60 21 5 21 6 2 12 -10 4 -21 19 -24 34 l-5 27 -27 -31z"/>
<path d="M3791 286 c-19 -20 -30 -36 -23 -36 8 0 12 -21 12 -63 0 -36 5 -68
12 -75 20 -20 56 -14 69 10 11 20 10 21 -3 11 -22 -19 -28 -6 -28 58 0 52 2
58 23 62 22 4 22 4 0 6 -17 1 -22 8 -25 32 l-3 30 -34 -35z"/>
<path d="M343 255 c-38 -33 -8 -33 32 0 22 18 26 24 13 25 -9 0 -30 -11 -45
-25z"/>
<path d="M455 270 c-4 -6 8 -10 29 -10 19 0 38 5 41 10 4 6 -8 10 -29 10 -19
0 -38 -4 -41 -10z"/>
<path d="M1530 266 c0 -8 9 -24 20 -37 18 -23 19 -23 19 -4 0 20 -21 55 -33
55 -3 0 -6 -6 -6 -14z"/>
<path d="M2375 245 c-52 -51 -23 -145 45 -145 28 0 78 35 66 47 -3 3 -12 -2
-21 -10 -18 -19 -41 -13 -55 14 -18 32 -11 39 36 39 42 0 45 1 38 23 -18 59
-68 74 -109 32z m63 -18 c3 -22 -1 -27 -17 -27 -21 0 -26 15 -15 45 9 23 29
13 32 -18z"/>
<path d="M2545 261 c-31 -4 -45 -9 -37 -14 16 -11 17 -188 0 -205 -9 -9 -2
-12 32 -12 34 0 41 3 32 12 -7 7 -12 24 -12 39 0 26 2 27 39 22 32 -4 41 -2
55 18 23 33 21 104 -4 129 -11 11 -28 19 -37 18 -10 0 -40 -4 -68 -7z m65 -30
c13 -24 13 -81 0 -101 -27 -43 -66 52 -40 100 13 25 26 26 40 1z"/>
<path d="M2719 252 c-15 -13 -20 -25 -16 -36 10 -25 43 -15 40 12 -2 16 3 22
17 22 36 0 25 -42 -18 -65 -64 -34 -52 -106 13 -77 15 7 26 8 30 2 9 -14 52
-12 61 2 4 6 2 14 -4 16 -7 2 -12 26 -12 62 0 48 -4 61 -19 70 -30 15 -66 12
-92 -8z m57 -108 c-3 -8 -10 -14 -16 -14 -14 0 -13 33 3 49 10 10 13 9 15 -4
2 -9 1 -23 -2 -31z"/>
<path d="M3216 263 c-4 -4 -21 -6 -39 -5 l-32 3 3 -66 c2 -41 -1 -71 -8 -80
-11 -13 -7 -15 26 -15 l39 0 -3 63 c-3 48 0 66 12 76 22 19 29 -3 24 -79 l-3
-60 39 0 c32 0 36 2 27 14 -7 8 -11 37 -9 68 3 45 6 53 23 53 17 0 20 -8 23
-53 2 -31 -2 -60 -9 -68 -9 -12 -5 -14 27 -14 l39 0 -5 72 c-3 40 -9 79 -13
86 -10 15 -42 16 -69 1 -14 -8 -23 -8 -31 0 -12 12 -50 15 -61 4z"/>
<path d="M3453 255 c-47 -33 -37 -139 13 -151 35 -9 72 3 84 27 11 20 11 20
-14 4 -23 -15 -26 -15 -45 4 -35 35 -27 51 24 51 51 0 57 12 24 54 -23 29 -54
33 -86 11z m57 -31 c0 -17 -5 -24 -20 -24 -22 0 -27 29 -8 48 16 16 28 6 28
-24z"/>
<path d="M3656 263 c-4 -4 -21 -6 -39 -5 l-32 3 3 -66 c2 -41 -1 -71 -8 -80
-11 -13 -7 -15 26 -15 l39 0 -3 63 c-3 48 0 66 12 76 22 19 29 -5 24 -79 l-4
-60 40 0 c31 0 37 3 28 12 -7 7 -12 39 -12 73 0 34 -5 66 -12 73 -13 13 -51
16 -62 5z"/>
<path d="M3985 245 c-51 -51 -18 -145 51 -145 48 0 74 29 74 83 0 78 -73 115
-125 62z m75 -66 c0 -62 -15 -84 -37 -54 -16 22 -17 88 -2 116 19 36 39 4 39
-62z"/>
<path d="M4565 245 c-51 -51 -18 -145 51 -145 48 0 74 29 74 83 0 78 -73 115
-125 62z m75 -66 c0 -61 -11 -79 -35 -59 -18 15 -20 92 -4 121 19 36 39 4 39
-62z"/>
<path d="M4797 253 c-11 -11 -17 -13 -17 -5 0 7 -12 12 -27 12 l-28 0 3 -71
c3 -52 0 -74 -10 -80 -8 -6 6 -9 37 -9 38 0 46 3 37 12 -13 13 -16 86 -4 106
5 7 19 11 33 10 18 -2 25 2 27 20 4 27 -25 30 -51 5z"/>
<path d="M4885 245 c-29 -29 -34 -88 -9 -123 18 -26 74 -30 98 -6 23 22 20 37
-4 22 -25 -16 -54 -1 -58 31 -3 18 1 21 37 21 36 0 41 3 41 23 0 29 -29 57
-59 57 -12 0 -33 -11 -46 -25z m63 -18 c3 -22 -1 -27 -17 -27 -15 0 -21 6 -21
23 0 46 33 49 38 4z"/>
<path d="M5134 263 c-6 -4 -17 -19 -23 -32 -11 -20 -10 -27 8 -51 18 -25 18
-30 5 -41 -8 -7 -14 -22 -12 -33 1 -12 -1 -27 -6 -34 -14 -24 14 -42 66 -42
61 0 88 14 88 44 0 32 -17 44 -70 48 -50 3 -57 20 -11 28 45 7 74 36 67 65 -4
14 -1 25 7 28 6 2 10 7 6 10 -9 10 -113 18 -125 10z m60 -19 c10 -27 7 -61 -9
-74 -22 -18 -43 30 -27 65 13 29 27 32 36 9z m31 -184 c0 -18 -62 -27 -77 -12
-18 18 3 33 40 30 25 -2 37 -8 37 -18z"/>
<path d="M5366 263 c-3 -4 -23 -6 -44 -5 l-37 3 0 -81 0 -80 39 0 c32 0 36 2
27 14 -7 8 -11 37 -9 68 2 42 7 54 21 56 17 3 18 -3 15 -67 l-3 -71 40 0 c30
0 36 3 27 12 -7 7 -12 39 -12 73 0 34 -5 66 -12 73 -13 13 -41 16 -52 5z"/>
<path d="M6029 249 c-25 -25 -21 -43 11 -47 19 -3 22 0 18 22 -6 28 13 41 31
23 20 -20 12 -35 -29 -58 -39 -22 -59 -56 -45 -78 8 -15 48 -14 63 1 9 9 15 9
24 0 16 -16 43 -15 57 2 9 10 8 15 -4 20 -11 4 -15 20 -15 59 0 29 -5 58 -12
65 -19 19 -76 14 -99 -9z m71 -88 c0 -24 -18 -37 -31 -24 -13 13 -1 43 17 43
8 0 14 -9 14 -19z"/>
<path d="M6357 253 c-11 -11 -17 -13 -17 -5 0 7 -12 12 -27 12 l-28 0 3 -71
c3 -52 0 -74 -10 -80 -8 -6 6 -9 37 -9 38 0 46 3 37 12 -14 14 -16 86 -3 106
5 9 17 11 34 6 24 -5 27 -3 27 20 0 31 -26 35 -53 9z"/>
<path d="M6442 258 c-24 -24 -14 -65 26 -96 31 -25 35 -33 24 -44 -11 -11 -18
-8 -38 15 l-24 28 0 -30 c0 -30 2 -31 45 -31 35 0 47 4 55 21 17 31 4 65 -35
89 -19 12 -35 26 -35 31 0 18 39 9 54 -13 l16 -22 0 29 c0 28 -3 30 -38 33
-21 1 -43 -3 -50 -10z"/>
<path d="M6673 258 c-15 -7 -23 -20 -23 -35 0 -20 4 -24 23 -21 15 2 22 10 22
25 0 13 3 23 8 23 4 0 12 0 17 0 25 0 8 -42 -25 -61 -47 -28 -62 -56 -41 -77
13 -14 21 -14 46 -5 18 7 32 7 36 2 8 -14 40 -11 54 6 9 10 9 15 1 15 -7 0
-11 21 -11 54 0 36 -5 60 -16 70 -18 18 -58 20 -91 4z m48 -121 c-8 -8 -14 -8
-23 1 -9 9 -7 17 8 33 l19 21 3 -22 c2 -12 -1 -27 -7 -33z"/>
<path d="M6896 263 c-4 -4 -21 -6 -39 -5 l-32 3 3 -66 c2 -41 -1 -71 -8 -80
-11 -13 -7 -15 26 -15 l39 0 0 67 c0 58 3 68 18 71 17 3 18 -3 15 -67 l-3 -71
40 0 c30 0 36 3 27 12 -7 7 -12 39 -12 73 0 34 -5 66 -12 73 -13 13 -51 16
-62 5z"/>
<path d="M7566 255 c-9 -9 -16 -12 -16 -6 0 6 -12 11 -27 11 l-28 0 3 -65 c2
-42 -1 -71 -8 -80 -11 -13 -5 -15 36 -15 30 0 44 4 36 9 -9 5 -12 25 -10 62 3
53 4 54 33 54 23 0 30 4 30 20 0 25 -28 31 -49 10z"/>
<path d="M7663 258 c-15 -7 -23 -20 -23 -35 0 -20 4 -24 23 -21 15 2 22 10 22
25 0 13 3 23 8 23 4 0 12 0 17 0 25 0 8 -42 -25 -61 -47 -28 -62 -56 -41 -77
13 -14 21 -14 46 -5 18 7 32 7 36 2 8 -14 40 -11 54 6 9 10 9 15 1 15 -7 0
-11 21 -11 54 0 36 -5 60 -16 70 -18 18 -58 20 -91 4z m48 -121 c-8 -8 -14 -8
-23 1 -9 9 -7 17 8 33 l19 21 3 -22 c2 -12 -1 -27 -7 -33z"/>
<path d="M8022 247 c-29 -30 -31 -106 -4 -130 25 -22 75 -21 95 1 23 25 21 35
-3 20 -25 -16 -54 -1 -58 31 -3 18 1 21 37 21 34 0 41 3 41 20 0 27 -35 60
-63 60 -13 0 -33 -10 -45 -23z m68 -28 c0 -14 -7 -19 -25 -19 -27 0 -31 10
-14 41 8 16 13 18 25 8 8 -6 14 -20 14 -30z"/>
<path d="M5015 180 l0 -80 40 0 c30 0 36 3 27 12 -7 7 -12 40 -12 80 0 68 0
68 -27 68 l-28 0 0 -80z"/>
<path d="M6188 189 c3 -52 0 -74 -10 -80 -8 -6 6 -9 37 -9 38 0 46 3 37 12 -7
7 -12 40 -12 80 0 68 0 68 -27 68 l-28 0 3 -71z"/>
<path d="M1405 240 c-4 -6 8 -10 29 -10 20 0 36 5 36 10 0 6 -13 10 -29 10
-17 0 -33 -4 -36 -10z"/>
<path d="M380 230 c0 -5 5 -10 10 -10 6 0 10 5 10 10 0 6 -4 10 -10 10 -5 0
-10 -4 -10 -10z"/>
<path d="M415 220 c3 -5 8 -10 11 -10 2 0 4 5 4 10 0 6 -5 10 -11 10 -5 0 -7
-4 -4 -10z"/>
<path d="M390 200 c0 -5 5 -10 10 -10 6 0 10 5 10 10 0 6 -4 10 -10 10 -5 0
-10 -4 -10 -10z"/>
<path d="M419 181 c-25 -20 -23 -36 4 -25 15 5 31 33 24 41 -2 2 -15 -5 -28
-16z"/>
<path d="M1400 190 c0 -5 5 -10 10 -10 6 0 10 5 10 10 0 6 -4 10 -10 10 -5 0
-10 -4 -10 -10z"/>
<path d="M480 167 c0 -13 7 -30 15 -37 13 -11 15 -9 15 13 0 13 -7 30 -15 37
-13 11 -15 9 -15 -13z"/>
<path d="M1480 179 c1 -15 23 -49 34 -49 13 0 5 28 -14 45 -15 14 -20 15 -20
4z"/>
<path d="M1450 150 c0 -5 7 -10 15 -10 8 0 15 5 15 10 0 6 -7 10 -15 10 -8 0
-15 -4 -15 -10z"/>
<path d="M1406 128 c-24 -34 -19 -44 9 -18 14 13 25 27 25 32 0 16 -19 8 -34
-14z"/>
<path d="M1460 120 c0 -5 5 -10 10 -10 6 0 10 5 10 10 0 6 -4 10 -10 10 -5 0
-10 -4 -10 -10z"/>
</g>
</svg>
