<?xml version="1.0" standalone="no"?>
<!DOCTYPE svg PUBLIC "-//W3C//DTD SVG 20010904//EN"
 "http://www.w3.org/TR/2001/REC-SVG-20010904/DTD/svg10.dtd">
<svg version="1.0" xmlns="http://www.w3.org/2000/svg"
 width="2996.000000pt" height="2996.000000pt" viewBox="0 0 2996.000000 2996.000000"
 preserveAspectRatio="xMidYMid meet">

<g transform="translate(0.000000,2996.000000) scale(0.100000,-0.100000)"
fill="#000000" stroke="none">
<path d="M3473 20103 c-94 -71 -250 -209 -387 -343 -475 -463 -817 -1009 -940
-1498 -47 -184 -59 -307 -53 -532 6 -229 27 -356 90 -547 19 -57 32 -104 30
-107 -2 -2 -115 107 -251 243 -136 136 -311 302 -389 369 -222 189 -392 322
-413 322 -11 0 -26 -10 -34 -22 -19 -31 -177 -525 -233 -728 -111 -410 -186
-779 -229 -1125 -22 -178 -30 -655 -14 -827 34 -370 126 -647 297 -886 243
-339 723 -622 1236 -726 119 -24 191 -33 447 -56 235 -21 381 -59 541 -141
108 -55 246 -163 293 -227 l31 -44 5 -876 5 -877 28 -3 c61 -7 57 -71 57 1015
0 1089 -4 1018 60 1078 18 17 80 82 138 145 139 152 130 146 205 124 119 -34
284 -16 667 72 713 165 1291 459 1698 863 361 360 589 818 658 1326 60 438
-24 1475 -166 2073 -32 134 -43 162 -65 162 -15 0 -105 -60 -335 -224 -1234
-878 -2006 -1720 -2387 -2601 -207 -476 -265 -953 -177 -1432 l17 -92 -75 -83
c-42 -46 -112 -121 -156 -168 l-81 -85 -1 893 c0 560 4 900 10 911 5 10 67 68
138 128 341 292 591 568 807 893 355 534 498 1024 444 1518 -51 470 -319 1022
-726 1493 -205 236 -665 659 -717 659 -14 0 -46 -16 -73 -37z m15 -711 l-3
-200 -215 155 c-118 85 -224 163 -235 174 -20 19 -19 20 135 172 85 85 191
184 235 221 l80 68 3 -195 c1 -108 1 -285 0 -395z m253 468 c123 -107 360
-345 379 -380 7 -13 -21 -32 -138 -98 -81 -45 -202 -113 -269 -151 l-123 -70
0 410 c0 247 4 409 9 407 5 -1 69 -55 142 -118z m-531 -593 c139 -100 261
-193 272 -207 17 -23 18 -42 16 -206 l-3 -180 -186 85 c-102 47 -292 135 -422
195 -149 68 -237 114 -237 123 0 20 279 373 294 373 8 0 127 -82 266 -183z
m1026 79 c61 -72 199 -258 199 -268 0 -6 -189 -99 -420 -209 l-420 -198 -8 92
c-11 118 3 216 37 267 32 49 96 92 311 212 94 52 186 105 205 116 48 30 63 28
96 -12z m-1261 -541 c486 -223 502 -231 514 -253 11 -20 17 -532 6 -532 -3 0
-208 96 -457 214 -249 117 -501 236 -559 263 -59 28 -109 58 -113 68 -4 11 1
33 13 54 121 228 184 338 197 348 20 15 -12 28 399 -162z m1531 167 c17 -10
174 -289 174 -307 0 -8 -17 -26 -37 -39 -57 -36 -1041 -606 -1047 -606 -3 0
-6 119 -6 265 0 262 0 264 23 281 26 19 857 414 872 414 6 0 15 -4 21 -8z
m238 -444 c18 -28 116 -336 116 -364 0 -12 -8 -28 -17 -36 -10 -9 -295 -140
-633 -291 l-615 -275 -3 161 c-2 124 1 164 11 174 20 20 1100 652 1114 653 7
0 19 -10 27 -22z m-2172 -184 c122 -59 372 -176 553 -260 182 -85 339 -165
351 -177 18 -21 20 -36 19 -154 0 -140 -8 -163 -50 -163 -13 0 -130 32 -261
71 -132 38 -385 113 -564 165 -398 116 -409 119 -421 151 -10 26 21 186 67
348 31 109 39 125 63 125 11 0 120 -48 243 -106z m4043 -390 c-70 -206 -147
-388 -268 -630 l-93 -185 -117 248 c-64 136 -117 254 -117 260 0 20 636 490
647 479 3 -2 -21 -79 -52 -172z m195 -54 c29 -146 68 -410 82 -558 10 -113 10
-135 -3 -147 -8 -8 -119 -31 -280 -57 l-266 -44 113 231 c122 250 189 411 254
605 23 69 44 132 47 140 7 19 28 -46 53 -170z m-1920 101 c13 -25 13 -339 0
-441 -12 -95 -26 -127 -60 -145 -15 -8 -245 -90 -511 -184 -266 -93 -534 -188
-595 -209 -61 -22 -115 -37 -121 -34 -9 6 -19 130 -26 332 -2 61 28 117 86
158 26 19 140 73 254 121 198 84 406 176 773 345 91 42 170 76 177 76 7 0 17
-9 23 -19z m-3388 -389 c71 -63 132 -120 135 -128 2 -7 -62 -112 -144 -233
l-149 -219 -47 166 c-70 247 -92 404 -88 605 l1 48 81 -63 c45 -34 140 -114
211 -176z m1331 52 c469 -137 637 -191 650 -206 15 -18 17 -44 17 -225 0 -119
-4 -212 -10 -223 -10 -18 -15 -18 -118 19 -443 160 -1138 423 -1150 434 -21
22 -31 83 -38 245 -6 110 -4 142 5 142 7 0 297 -84 644 -186z m-1708 -159 c20
-111 75 -334 108 -437 14 -43 24 -78 23 -78 -32 2 -301 61 -307 67 -6 6 6 65
31 154 44 155 120 392 125 387 2 -2 10 -43 20 -93z m4951 -176 c68 -144 124
-267 124 -273 0 -6 -58 -112 -129 -235 l-129 -223 -16 29 c-8 16 -37 103 -65
194 -28 90 -77 251 -110 358 -39 124 -57 200 -52 209 10 17 244 211 250 206 2
-1 59 -121 127 -265z m-4159 -110 c103 -105 178 -189 178 -200 0 -16 -498
-589 -512 -589 -12 0 -193 447 -193 477 0 23 319 493 335 493 8 0 95 -81 192
-181z m590 27 c514 -188 938 -347 960 -361 30 -20 34 -54 31 -226 l-3 -146
-481 201 c-264 111 -518 216 -563 234 -50 21 -88 43 -97 58 -26 39 -123 334
-110 334 3 0 121 -42 263 -94z m2333 61 c0 -13 -67 -206 -95 -274 -62 -147
-103 -221 -132 -236 -54 -27 -948 -311 -983 -311 -34 -1 -35 -1 -43 54 -5 30
-7 98 -5 150 5 123 23 161 98 203 29 17 299 117 599 223 530 187 561 197 561
191z m895 -405 c69 -221 125 -407 125 -414 0 -14 -272 -427 -281 -428 -7 0
-333 760 -349 816 -20 66 1 95 197 275 96 88 177 159 179 156 3 -2 61 -185
129 -405z m1169 182 c13 -12 16 -42 16 -152 1 -75 5 -168 10 -207 7 -55 6 -73
-5 -84 -10 -10 -137 -25 -454 -55 -243 -23 -441 -40 -441 -38 0 18 259 446
274 455 23 12 488 94 548 96 21 0 43 -5 52 -15z m-5779 -167 c72 -13 140 -29
152 -35 12 -7 29 -33 39 -59 9 -27 48 -127 85 -223 38 -97 65 -178 60 -183 -9
-9 -568 77 -608 93 -15 6 -23 18 -23 32 0 47 79 391 92 400 14 10 16 9 203
-25z m1155 -94 c140 -175 160 -204 160 -229 0 -15 -49 -84 -142 -200 -189
-234 -420 -527 -433 -549 -8 -14 -32 30 -123 224 -63 133 -112 246 -110 252 8
25 533 609 547 609 9 0 54 -48 101 -107z m3220 -857 c0 -12 -57 -99 -126 -194
l-126 -173 -17 28 c-59 97 -451 822 -451 832 0 6 77 100 172 207 l171 194 189
-437 c103 -240 188 -446 188 -457z m-2506 650 c258 -107 477 -202 485 -211 12
-12 17 -47 22 -153 5 -134 0 -179 -24 -194 -21 -13 -58 -9 -197 23 -74 16
-180 36 -235 44 -114 16 -158 40 -212 115 -80 110 -403 591 -403 600 0 12 -13
17 564 -224z m1552 37 c-19 -50 -118 -192 -172 -247 -72 -73 -147 -115 -267
-150 -81 -23 -218 -76 -408 -157 -42 -17 -84 -29 -93 -26 -13 5 -16 24 -16
110 0 126 10 159 58 189 28 17 857 292 896 297 4 1 5 -7 2 -16z m2391 -135 c4
-7 6 -92 4 -188 -3 -188 -12 -229 -53 -251 -31 -17 -1218 -91 -1218 -76 0 10
259 399 278 419 14 14 92 25 437 61 461 49 540 54 552 35z m-4352 -124 c37
-53 74 -113 83 -134 14 -38 14 -40 -14 -88 -16 -28 -153 -210 -304 -406 l-274
-355 -48 82 c-124 213 -119 262 48 467 47 58 162 201 256 318 94 116 174 212
178 212 5 0 39 -43 75 -96z m-1070 -101 c9 -6 47 -73 82 -149 140 -300 134
-284 117 -291 -20 -8 -912 227 -935 247 -18 15 -18 19 2 155 12 77 25 145 29
150 9 11 673 -94 705 -112z m3429 -350 c124 -227 226 -421 226 -430 0 -17
-202 -285 -218 -290 -4 -1 -83 135 -177 303 -93 168 -185 326 -203 352 -100
143 -96 213 18 346 28 32 65 79 81 103 17 25 35 41 40 36 4 -4 109 -194 233
-420z m-764 222 c0 -2 -40 -51 -89 -107 -103 -120 -289 -304 -411 -408 l-85
-72 -6 68 c-27 288 -1 338 206 395 44 12 129 41 190 64 165 64 195 73 195 60z
m-1327 -174 c42 -81 77 -160 77 -174 0 -18 -46 -81 -158 -219 -87 -106 -226
-276 -308 -378 -101 -124 -156 -185 -169 -185 -15 0 -34 28 -77 112 -66 129
-71 164 -34 230 28 49 576 763 585 763 3 0 41 -67 84 -149z m398 -1 c122 -22
228 -45 235 -51 11 -9 14 -51 14 -191 l0 -179 -92 78 c-108 92 -388 362 -388
374 0 12 -20 14 231 -31z m-1973 -130 c272 -72 502 -135 511 -139 9 -5 53 -81
99 -169 l82 -160 -72 14 c-40 7 -221 41 -403 74 -181 34 -418 77 -525 97 -107
19 -206 42 -219 50 l-23 15 7 156 c7 154 14 192 37 192 6 0 234 -59 506 -130z
m5610 78 c4 -33 -34 -179 -60 -231 -35 -69 -87 -86 -333 -107 -336 -27 -1122
-57 -1137 -42 -6 6 38 75 107 170 114 158 117 161 158 166 90 12 1107 74 1182
72 79 -1 80 -1 83 -28z m-2285 -310 c96 -169 184 -320 196 -337 12 -16 33 -55
47 -86 36 -79 29 -109 -50 -193 -34 -37 -100 -113 -146 -170 -45 -57 -86 -99
-90 -95 -13 14 -350 815 -350 831 0 18 106 220 162 310 23 35 44 60 49 55 4
-4 86 -146 182 -315z m-1400 74 c73 -64 165 -146 204 -181 52 -45 76 -73 83
-99 7 -25 10 -357 8 -1039 l-3 -1002 -165 121 c-91 66 -173 126 -184 133 -17
13 -15 20 43 137 137 277 161 558 95 1128 -29 255 -94 536 -178 775 -47 131
-50 145 -40 145 3 0 65 -53 137 -118z m-153 -169 c37 -108 40 -125 28 -146 -7
-13 -134 -193 -283 -399 l-270 -375 -88 150 -89 150 23 31 c13 17 156 194 318
394 282 348 295 362 307 340 7 -13 32 -78 54 -145z m-1675 -128 c341 -63 630
-119 641 -124 12 -5 42 -49 69 -98 26 -48 61 -111 76 -139 l29 -50 -178 23
c-97 13 -404 52 -682 88 -278 36 -517 68 -533 71 -15 3 -31 13 -36 22 -12 22
-35 287 -27 307 3 8 9 15 13 15 5 0 287 -52 628 -115z m5375 105 c0 -49 -246
-454 -295 -486 -19 -13 -40 -12 -161 1 -76 8 -383 40 -682 70 -299 30 -548 57
-553 60 -15 10 -11 21 40 97 54 82 100 127 164 159 90 47 124 50 517 59 342 7
535 17 785 39 134 12 185 12 185 1z m-2431 -453 c94 -219 161 -388 159 -402
-3 -27 -479 -578 -490 -567 -15 16 -40 187 -45 318 -13 315 58 704 177 969 17
37 32 66 34 64 2 -2 76 -174 165 -382z m-1159 11 c17 -97 28 -189 24 -203 -3
-14 -49 -73 -101 -131 -52 -59 -155 -176 -230 -261 -74 -85 -140 -152 -146
-150 -18 6 -107 160 -107 185 0 38 23 73 263 407 219 305 259 356 264 338 1
-4 16 -88 33 -185z m-1750 -68 c294 -38 557 -74 583 -80 26 -5 76 -10 110 -10
118 -1 168 -41 253 -206 58 -114 56 -125 -32 -136 -32 -4 -344 -15 -693 -23
-471 -12 -637 -13 -647 -4 -41 34 -133 245 -180 411 -32 114 -27 133 35 124
20 -3 277 -37 571 -76z m4147 6 c296 -30 588 -60 648 -65 61 -6 123 -14 138
-19 l29 -8 -99 -94 c-157 -152 -363 -309 -527 -400 -70 -40 7 -53 -616 105
-256 64 -471 123 -479 131 -12 11 -11 17 10 43 277 342 295 361 336 361 13 0
265 -24 560 -54z m-2340 -621 c-6 -285 -29 -396 -117 -577 -29 -60 -35 -66
-45 -50 -7 9 -74 115 -150 235 -108 172 -136 222 -129 237 5 10 104 125 219
255 l210 238 8 -54 c5 -30 6 -157 4 -284z m2320 -72 c6 -18 -370 -166 -612
-241 -325 -101 -637 -164 -804 -163 -60 0 -78 4 -94 20 -20 19 -20 20 35 78
30 32 148 166 263 298 114 132 217 245 227 251 16 9 116 -13 501 -111 265 -67
482 -126 484 -132z m-3063 149 c31 -14 47 -33 91 -109 44 -77 50 -93 36 -97
-9 -3 -250 -44 -536 -91 -348 -58 -537 -85 -572 -82 -48 3 -62 11 -167 91
-103 78 -233 203 -256 246 -8 15 36 18 533 30 455 11 612 16 812 28 11 1 37
-6 59 -16z m201 -314 c16 -7 52 -55 101 -135 41 -69 102 -166 135 -216 45 -71
55 -93 43 -95 -28 -7 -327 18 -469 39 -173 24 -364 69 -513 120 -121 42 -316
129 -307 137 7 7 910 159 952 161 18 0 44 -4 58 -11z"/>
<path d="M21700 17470 l0 -210 200 0 200 0 0 210 0 210 -200 0 -200 0 0 -210z"/>
<path d="M23990 16590 l0 -1090 185 0 185 0 0 1090 0 1090 -185 0 -185 0 0
-1090z"/>
<path d="M17405 17615 c-199 -44 -343 -150 -420 -310 -42 -88 -55 -152 -55
-268 0 -279 144 -452 485 -584 326 -125 377 -146 436 -182 105 -63 159 -154
145 -244 -42 -263 -427 -275 -861 -26 -47 27 -87 49 -89 49 -11 0 -186 -292
-181 -300 11 -17 177 -111 265 -150 113 -50 255 -95 365 -115 128 -24 362 -17
460 15 211 67 344 193 411 390 27 79 27 292 0 370 -32 94 -64 147 -128 216
-112 119 -213 176 -513 284 -290 105 -352 140 -386 214 -53 118 13 252 143
291 138 41 375 -7 593 -119 44 -22 83 -41 87 -41 8 0 188 284 188 297 0 4 -49
32 -109 62 -130 65 -319 128 -450 150 -113 19 -302 20 -386 1z"/>
<path d="M7980 17595 c0 -2 160 -290 355 -639 l355 -634 0 -411 0 -411 190 0
190 0 0 408 0 407 355 635 c195 349 355 638 355 643 0 4 -98 7 -217 7 l-218
-1 -230 -439 c-126 -242 -232 -440 -235 -440 -3 0 -108 198 -234 440 l-230
440 -218 0 c-120 0 -218 -2 -218 -5z"/>
<path d="M12130 17119 c-41 -10 -128 -45 -192 -77 l-118 -59 0 64 0 63 -190 0
-190 0 0 -805 0 -805 190 0 190 0 0 555 0 555 68 50 c129 97 295 161 376 146
19 -4 48 -18 64 -31 56 -47 56 -49 59 -687 l4 -588 184 0 185 0 0 613 c0 663
-3 696 -55 803 -52 106 -142 179 -259 210 -74 20 -226 17 -316 -7z"/>
<path d="M15033 17120 c-103 -27 -179 -67 -240 -127 -98 -96 -146 -248 -124
-395 33 -218 185 -346 526 -448 228 -68 309 -116 322 -193 8 -54 -12 -93 -66
-125 -42 -25 -54 -27 -151 -27 -92 1 -117 5 -200 33 -52 18 -146 59 -209 90
-63 31 -116 52 -118 47 -2 -6 -39 -70 -83 -144 -61 -103 -77 -137 -69 -148 6
-7 66 -40 133 -72 206 -101 368 -141 571 -141 326 0 531 146 568 406 32 220
-78 406 -304 517 -52 25 -164 67 -249 92 -186 57 -230 76 -270 121 -62 72 -23
166 81 194 97 27 305 -17 468 -99 33 -17 64 -31 69 -31 9 0 182 266 182 279 0
12 -195 100 -294 132 -186 61 -401 76 -543 39z"/>
<path d="M19135 17126 c-232 -54 -386 -186 -474 -407 -52 -131 -66 -222 -65
-429 1 -165 4 -196 27 -285 73 -277 238 -453 485 -516 105 -27 300 -26 406 1
162 41 313 154 395 292 119 204 154 545 85 827 -23 96 -93 237 -152 307 -67
81 -180 156 -285 190 -69 23 -104 27 -222 30 -95 3 -159 -1 -200 -10z m324
-351 c63 -35 112 -95 141 -173 35 -92 44 -158 44 -307 -1 -203 -32 -319 -110
-405 -57 -63 -121 -90 -215 -90 -224 0 -333 142 -346 455 -11 267 54 452 181
517 65 33 86 38 171 35 67 -3 89 -8 134 -32z"/>
<path d="M20738 17125 c-122 -31 -243 -109 -330 -213 -52 -62 -123 -208 -150
-307 -19 -69 -22 -108 -22 -285 -1 -183 1 -214 22 -295 13 -49 46 -137 74
-195 44 -90 62 -116 132 -185 131 -131 240 -175 428 -175 165 0 299 42 496
154 155 88 149 61 52 225 -47 77 -91 140 -99 141 -7 0 -59 -26 -115 -58 -148
-86 -227 -116 -306 -116 -77 -1 -120 17 -178 75 -88 89 -126 215 -126 414 0
196 37 318 123 408 116 123 247 110 510 -52 47 -28 90 -50 95 -48 10 3 176
275 176 287 0 8 -162 103 -245 143 -132 65 -227 89 -360 93 -82 2 -138 -1
-177 -11z"/>
<path d="M22875 17121 c-140 -26 -284 -69 -468 -140 l-27 -11 75 -151 c48 -94
80 -149 88 -145 7 2 80 27 162 55 258 85 398 102 485 59 62 -32 82 -75 88
-194 3 -52 2 -94 -1 -94 -2 0 -48 9 -101 20 -319 65 -508 46 -659 -68 -119
-91 -184 -225 -194 -402 -15 -249 84 -441 270 -529 93 -43 157 -54 293 -49
101 4 131 10 202 36 46 17 106 45 133 62 27 16 51 30 54 30 3 0 5 -22 5 -50
l0 -50 191 0 190 0 -4 608 c-3 375 -8 624 -15 652 -43 185 -142 300 -302 352
-94 30 -326 35 -465 9z m235 -876 c52 -9 112 -20 133 -26 l37 -10 0 -113 0
-114 -51 -46 c-151 -135 -379 -175 -472 -82 -72 72 -77 235 -11 324 60 78 168
98 364 67z"/>
<path d="M9790 16492 c0 -584 1 -623 20 -696 26 -102 62 -167 127 -226 75 -69
142 -92 276 -98 165 -7 297 28 450 117 l67 40 0 -65 0 -64 190 0 190 0 0 805
0 805 -190 0 -190 0 0 -557 -1 -558 -46 -35 c-146 -110 -291 -168 -391 -157
-36 4 -53 12 -78 39 -51 56 -54 100 -54 716 l0 552 -185 0 -185 0 0 -618z"/>
<path d="M13082 16473 c4 -705 1 -675 70 -806 39 -72 92 -120 177 -161 61 -28
76 -31 188 -34 109 -4 133 -1 215 23 51 14 139 50 196 80 l102 53 0 -64 0 -64
185 0 185 0 0 805 0 805 -185 0 -185 0 0 -555 0 -555 -67 -50 c-175 -129 -347
-181 -430 -130 -70 42 -68 18 -71 688 l-3 602 -190 0 -190 0 3 -637z"/>
<path d="M21710 16305 l0 -805 185 0 185 0 0 805 0 805 -185 0 -185 0 0 -805z"/>
<path d="M13060 14660 l0 -210 200 0 200 0 0 210 0 210 -200 0 -200 0 0 -210z"/>
<path d="M21224 14800 c-209 -54 -371 -193 -474 -405 -82 -167 -118 -332 -127
-580 -21 -585 176 -991 545 -1120 63 -23 100 -28 205 -32 188 -8 316 22 505
118 106 54 321 195 329 215 3 10 -89 150 -193 292 -1 2 -57 -34 -125 -79 -212
-140 -350 -195 -473 -187 -90 6 -149 34 -216 101 -137 137 -211 439 -181 742
22 224 78 381 173 481 162 172 349 151 699 -77 67 -44 123 -79 124 -77 26 30
195 279 195 286 0 12 -177 133 -285 194 -103 59 -240 112 -337 132 -106 22
-274 20 -364 -4z"/>
<path d="M8240 13741 l0 -1051 485 0 c404 0 499 3 562 16 201 41 342 144 413
299 41 90 54 158 54 280 -1 215 -73 372 -221 481 l-63 46 50 55 c90 98 134
225 133 378 -1 165 -40 264 -142 365 -74 74 -155 118 -278 152 -74 21 -102 22
-535 26 l-458 3 0 -1050z m859 690 c119 -37 171 -105 171 -222 -1 -144 -87
-226 -262 -249 -40 -5 -144 -10 -230 -10 l-158 0 0 250 0 250 209 0 c178 0
218 -3 270 -19z m68 -834 c82 -27 144 -76 177 -140 24 -48 28 -67 28 -135 0
-131 -51 -216 -156 -264 -49 -22 -63 -23 -323 -26 l-273 -3 0 296 0 297 248
-4 c195 -4 258 -8 299 -21z"/>
<path d="M25853 14703 l-183 -45 0 -179 0 -179 -90 0 -90 0 0 -160 0 -160 89
0 90 0 3 -507 c4 -481 5 -511 24 -569 57 -169 169 -244 364 -244 119 0 248 30
385 91 86 37 95 44 89 63 -6 20 -132 277 -140 285 -2 2 -34 -10 -71 -26 -75
-34 -149 -59 -204 -68 -70 -13 -69 -22 -69 507 l0 468 185 0 185 0 0 160 0
160 -185 0 -185 0 0 225 c0 124 -3 224 -7 224 -5 -1 -90 -22 -190 -46z"/>
<path d="M11993 14315 c-250 -54 -399 -249 -380 -495 11 -139 68 -244 178
-325 84 -62 166 -98 341 -151 227 -68 306 -112 328 -181 16 -47 4 -87 -36
-122 -46 -41 -102 -54 -199 -48 -104 7 -220 44 -373 119 -67 33 -124 59 -127
57 -10 -11 -165 -279 -165 -287 0 -14 206 -117 303 -151 139 -49 267 -71 409
-71 200 0 329 42 434 142 104 98 138 191 132 357 -3 94 -7 114 -35 173 -76
162 -216 254 -529 347 -228 68 -287 107 -287 190 0 157 243 172 550 35 57 -26
105 -45 107 -43 9 10 169 264 173 274 5 14 -183 101 -302 140 -166 54 -383 70
-522 40z"/>
<path d="M14525 14324 c-81 -19 -120 -31 -187 -60 -43 -17 -100 -46 -128 -63
-28 -17 -52 -31 -55 -31 -3 0 -5 29 -5 65 l0 65 -185 0 -185 0 0 -805 0 -805
185 0 185 0 0 554 0 554 56 42 c131 99 305 169 386 156 54 -9 76 -24 101 -71
22 -40 22 -46 25 -637 l3 -598 190 0 190 0 -3 628 c-4 554 -6 634 -21 685 -29
99 -67 165 -129 222 -82 76 -142 97 -288 101 -63 2 -124 1 -135 -2z"/>
<path d="M15885 14312 c-248 -63 -421 -247 -496 -527 -34 -125 -38 -403 -9
-545 51 -249 175 -426 364 -519 87 -43 174 -61 294 -61 128 0 228 20 356 71
84 34 288 145 350 191 18 14 14 22 -73 152 l-92 137 -27 -17 c-158 -105 -330
-184 -444 -204 -158 -28 -272 59 -333 253 -42 131 -97 117 449 117 l474 0 12
83 c19 125 9 353 -20 442 -68 212 -188 341 -378 408 -78 27 -102 31 -222 34
-104 2 -151 -1 -205 -15z m271 -317 c52 -15 114 -67 139 -115 16 -32 41 -122
49 -177 l6 -43 -299 0 -299 0 14 60 c51 220 207 330 390 275z"/>
<path d="M17323 14315 c-270 -59 -423 -287 -373 -556 37 -195 187 -317 510
-414 167 -51 244 -83 289 -121 63 -53 65 -131 6 -183 -47 -41 -103 -54 -200
-48 -104 7 -220 44 -373 119 -67 33 -124 59 -126 57 -11 -12 -166 -279 -166
-287 0 -14 206 -117 303 -151 275 -96 567 -96 748 0 80 43 171 141 198 214 68
180 35 377 -85 505 -89 95 -213 158 -450 229 -228 68 -287 107 -287 190 0 157
243 172 550 35 57 -26 105 -45 107 -43 9 9 168 264 172 274 6 15 -158 92 -284
134 -52 17 -132 38 -179 46 -104 18 -276 18 -360 0z"/>
<path d="M18724 14310 c-95 -25 -166 -62 -227 -118 -97 -91 -137 -188 -137
-330 0 -150 41 -245 147 -342 72 -66 179 -116 383 -180 193 -61 245 -86 288
-135 26 -29 32 -44 32 -82 0 -39 -5 -50 -34 -77 -102 -97 -318 -68 -609 81
-51 26 -92 42 -97 37 -5 -5 -45 -70 -89 -144 l-80 -135 22 -18 c38 -30 219
-114 314 -146 152 -50 248 -64 413 -58 121 4 157 9 216 29 210 74 324 230 324
443 -1 134 -42 236 -130 325 -96 95 -214 153 -459 225 -196 57 -258 97 -267
172 -10 81 54 133 172 141 93 6 241 -31 376 -95 85 -40 101 -44 112 -32 21 23
166 255 166 266 0 14 -200 107 -296 136 -190 60 -400 74 -540 37z"/>
<path d="M22860 14309 c-123 -31 -195 -73 -291 -169 -73 -72 -93 -100 -132
-180 -67 -137 -88 -233 -94 -422 -6 -184 5 -284 48 -413 60 -182 169 -316 317
-393 104 -54 181 -72 318 -72 129 0 246 25 381 83 77 32 258 135 313 177 l25
19 -84 123 c-46 68 -89 128 -95 135 -8 9 -30 -1 -91 -38 -226 -142 -397 -197
-508 -165 -114 33 -204 158 -232 324 l-7 42 475 0 475 0 13 73 c29 171 8 405
-50 540 -74 171 -215 289 -405 337 -106 27 -271 27 -376 -1z m317 -330 c78
-41 129 -135 148 -271 l6 -48 -299 0 -300 0 5 23 c39 175 115 280 233 318 46
15 157 3 207 -22z"/>
<path d="M24725 14324 c-132 -31 -225 -68 -317 -124 -26 -17 -50 -30 -53 -30
-3 0 -5 29 -5 65 l0 65 -185 0 -185 0 0 -805 0 -805 185 0 185 0 0 554 0 554
56 42 c179 135 383 194 452 129 59 -54 57 -31 60 -681 l3 -598 190 0 190 0 -3
628 c-4 556 -6 634 -21 685 -29 99 -67 165 -129 222 -82 76 -142 97 -288 101
-63 2 -124 1 -135 -2z"/>
<path d="M28202 14310 c-260 -68 -435 -270 -496 -571 -69 -345 11 -705 199
-895 128 -129 265 -184 460 -184 165 0 287 32 460 118 75 37 230 129 258 152
10 8 -171 276 -184 272 -6 -1 -56 -30 -112 -64 -238 -144 -405 -185 -517 -128
-40 20 -111 93 -133 136 -21 40 -57 161 -57 190 l0 24 473 2 472 3 11 65 c19
105 16 292 -5 395 -54 262 -222 438 -467 490 -99 21 -272 18 -362 -5z m313
-328 c71 -36 115 -98 141 -197 8 -27 14 -67 14 -87 l0 -38 -295 0 c-162 0
-295 3 -295 8 0 19 29 112 48 154 40 91 92 142 181 175 50 19 156 11 206 -15z"/>
<path d="M27370 14313 c-86 -14 -181 -59 -257 -121 l-43 -34 0 71 0 71 -185 0
-185 0 0 -805 0 -805 185 0 185 0 0 439 c0 495 2 509 78 627 49 75 99 119 182
158 55 26 79 31 163 34 l97 4 0 178 c0 153 -2 179 -16 184 -17 7 -163 6 -204
-1z"/>
<path d="M10030 13688 c0 -673 2 -696 60 -815 39 -78 120 -154 198 -184 71
-28 242 -37 335 -19 83 16 197 61 281 110 37 22 70 40 72 40 2 0 4 -29 4 -65
l0 -65 185 0 185 0 0 805 0 805 -185 0 -185 0 0 -554 0 -554 -52 -39 c-204
-151 -390 -203 -467 -129 -55 52 -55 53 -58 689 l-4 587 -185 0 -184 0 0 -612z"/>
<path d="M13070 13495 l0 -805 185 0 185 0 0 805 0 805 -185 0 -185 0 0 -805z"/>
<path d="M9791 12114 c-64 -81 38 -195 107 -121 29 31 30 99 2 127 -30 30 -83
27 -109 -6z"/>
<path d="M13110 11725 l0 -415 65 0 65 0 0 415 0 415 -65 0 -65 0 0 -415z"/>
<path d="M13370 11725 l0 -415 65 0 65 0 0 415 0 415 -65 0 -65 0 0 -415z"/>
<path d="M17090 11725 l0 -415 65 0 65 0 0 168 c0 185 8 231 47 262 35 27 65
25 94 -6 23 -25 24 -30 27 -225 l3 -199 65 0 64 0 0 213 c0 123 -5 229 -11
252 -6 21 -26 54 -44 72 -30 30 -38 33 -94 33 -58 0 -64 -2 -106 -41 l-45 -42
0 172 0 171 -65 0 -65 0 0 -415z"/>
<path d="M19820 11979 l0 -161 -35 31 c-31 27 -43 31 -93 31 -89 0 -150 -49
-188 -151 -22 -56 -24 -227 -5 -284 31 -91 96 -145 174 -145 56 0 97 18 126
57 l20 28 1 -37 0 -38 65 0 65 0 0 415 0 415 -65 0 -65 0 0 -161z m-47 -239
c35 -28 50 -80 45 -158 -4 -76 -21 -116 -59 -145 -36 -26 -82 -16 -111 26 -34
47 -38 169 -9 230 32 66 86 85 134 47z"/>
<path d="M23370 11725 l0 -415 65 0 65 0 0 415 0 415 -65 0 -65 0 0 -415z"/>
<path d="M8610 12097 c-196 -55 -319 -297 -281 -547 22 -143 98 -257 206 -310
44 -22 63 -25 165 -25 70 0 130 5 153 13 37 13 37 14 37 67 l0 54 -47 -21
c-101 -45 -239 -31 -315 32 -21 18 -51 59 -70 98 -31 63 -33 72 -33 177 1 128
21 193 85 274 46 59 90 87 158 102 118 28 238 -40 282 -157 41 -110 20 -304
-37 -341 -22 -15 -26 -15 -41 1 -20 19 -22 76 -9 259 l8 117 -45 0 c-41 0 -46
-2 -46 -22 0 -22 -1 -22 -25 5 -20 21 -35 27 -68 27 -99 0 -168 -98 -175 -249
-5 -107 10 -165 53 -208 28 -28 40 -33 80 -33 40 0 51 5 76 31 16 17 29 37 29
45 0 8 5 14 10 14 6 0 10 -9 10 -19 0 -11 14 -31 32 -46 28 -23 39 -27 80 -23
64 7 114 47 153 123 29 56 30 64 30 184 0 116 -2 131 -27 183 -35 75 -98 142
-164 174 -65 32 -192 42 -264 21z m131 -308 c19 -19 21 -30 17 -113 -4 -105
-25 -154 -72 -171 -25 -8 -31 -6 -52 18 -43 50 -29 207 22 262 28 31 57 32 85
4z"/>
<path d="M11180 12107 c0 -3 -36 -173 -45 -214 -5 -21 -2 -23 37 -23 l43 0 42
120 41 120 -59 0 c-32 0 -59 -1 -59 -3z"/>
<path d="M12220 12101 c-96 -31 -164 -95 -213 -200 -28 -60 -32 -77 -35 -187
-5 -141 10 -209 64 -289 57 -86 133 -124 250 -125 39 0 94 7 122 15 l52 16 0
80 0 79 -42 -21 c-58 -30 -150 -32 -198 -4 -84 50 -125 171 -103 302 13 75 49
134 102 170 44 30 137 31 199 3 l42 -19 0 80 c0 77 -1 80 -27 91 -35 14 -180
20 -213 9z"/>
<path d="M9210 11705 l0 -395 65 0 65 0 1 188 c0 126 3 182 10 172 5 -8 53
-93 106 -187 l96 -173 89 0 88 0 -125 206 -125 205 104 172 c58 95 108 180
111 190 6 15 -1 17 -72 17 l-79 0 -99 -182 -100 -183 -3 183 -2 182 -65 0 -65
0 0 -395z"/>
<path d="M15680 11705 l0 -395 65 0 65 0 1 188 c0 126 3 182 10 172 5 -8 53
-93 106 -187 l96 -173 89 0 88 0 -125 206 -125 205 104 172 c58 95 108 180
111 190 6 15 -1 17 -72 17 l-79 0 -99 -182 -100 -183 -3 183 -2 182 -65 0 -65
0 0 -395z"/>
<path d="M21130 11705 l0 -395 60 0 60 0 2 280 3 281 149 -281 150 -280 68 0
68 0 0 395 0 395 -60 0 -60 0 -2 -276 -3 -275 -145 275 -145 276 -72 0 -73 0
0 -395z"/>
<path d="M16828 12017 l-58 -21 0 -63 0 -63 -35 0 -35 0 0 -60 0 -60 34 0 34
0 4 -172 c4 -191 14 -229 67 -261 29 -17 105 -22 149 -11 20 6 22 12 22 71 0
62 -1 63 -21 52 -30 -15 -66 3 -76 38 -5 15 -8 84 -8 153 l0 125 53 3 52 3 0
59 0 59 -52 3 -53 3 -3 83 c-2 45 -6 82 -10 81 -4 0 -33 -10 -64 -22z"/>
<path d="M10203 11835 l-43 -45 0 40 0 40 -65 0 -65 0 0 -280 0 -280 65 0 65
0 0 168 c0 185 8 231 47 262 35 27 65 25 94 -6 23 -25 24 -30 27 -225 l3 -199
65 0 64 0 0 216 c0 243 -6 280 -57 324 -29 26 -41 30 -95 30 -60 0 -63 -1
-105 -45z"/>
<path d="M10674 11861 c-79 -48 -116 -135 -118 -276 -1 -140 30 -219 108 -266
66 -40 176 -15 211 49 14 27 14 26 15 -24 1 -141 -115 -211 -247 -149 l-53 24
0 -70 0 -70 35 -15 c21 -8 68 -14 119 -14 107 0 174 31 223 103 47 70 53 118
53 432 l0 285 -65 0 -65 0 0 -29 0 -29 -34 34 c-31 31 -39 34 -92 34 -40 0
-69 -6 -90 -19z m169 -121 c36 -28 50 -79 45 -165 -4 -80 -22 -117 -71 -145
-24 -13 -30 -13 -54 0 -42 24 -64 62 -70 122 -15 147 69 252 150 188z"/>
<path d="M11405 11864 c-44 -23 -66 -45 -81 -81 -20 -47 -17 -110 7 -160 17
-36 31 -48 87 -75 84 -40 102 -55 102 -84 0 -56 -87 -69 -170 -25 l-40 21 0
-69 0 -68 39 -11 c65 -20 161 -15 211 11 66 33 90 75 90 156 0 92 -19 119
-120 167 -66 32 -90 51 -90 74 0 46 76 64 147 35 19 -8 37 -15 39 -15 2 0 4
27 4 60 0 56 -2 61 -26 70 -41 16 -165 12 -199 -6z"/>
<path d="M12675 11861 c-91 -42 -138 -131 -139 -261 -1 -108 17 -169 66 -224
50 -58 106 -80 190 -74 83 5 135 32 175 92 43 63 53 103 53 211 0 74 -4 99
-24 140 -27 59 -68 102 -113 121 -47 20 -160 17 -208 -5z m170 -134 c37 -37
51 -102 40 -180 -14 -95 -66 -139 -138 -117 -50 15 -76 68 -77 158 0 74 17
120 55 150 41 32 81 28 120 -11z"/>
<path d="M13735 11868 c-35 -19 -86 -72 -105 -108 -28 -55 -43 -147 -36 -219
13 -120 67 -203 152 -231 48 -16 169 -8 212 14 31 16 32 19 32 76 l0 60 -40
-20 c-25 -13 -59 -20 -96 -20 -50 0 -59 3 -90 34 -21 21 -34 44 -34 60 l0 25
148 3 147 3 -1 75 c0 41 -6 94 -13 118 -13 48 -60 106 -102 128 -33 17 -145
18 -174 2z m120 -104 c20 -8 45 -56 45 -89 0 -25 0 -25 -86 -25 l-86 0 6 32
c12 62 70 101 121 82z"/>
<path d="M14204 11861 c-79 -48 -116 -135 -118 -276 -1 -140 30 -219 108 -266
66 -40 174 -15 212 49 14 26 15 25 10 -35 -10 -142 -112 -200 -243 -138 l-53
24 0 -70 0 -70 35 -15 c21 -8 68 -14 119 -14 107 0 174 31 223 103 47 70 53
118 53 432 l0 285 -65 0 -65 0 0 -29 0 -29 -34 34 c-31 31 -39 34 -92 34 -40
0 -69 -6 -90 -19z m169 -121 c36 -28 50 -79 45 -165 -4 -80 -22 -117 -71 -145
-24 -13 -30 -13 -54 0 -42 24 -64 62 -70 122 -15 147 69 252 150 188z"/>
<path d="M14785 11868 c-35 -19 -86 -72 -105 -108 -28 -55 -43 -147 -36 -219
13 -120 67 -203 152 -231 48 -16 169 -8 212 14 31 16 32 19 32 76 l0 60 -40
-20 c-25 -13 -59 -20 -96 -20 -50 0 -59 3 -90 34 -21 21 -34 44 -34 60 l0 25
148 3 147 3 -1 75 c0 41 -6 94 -13 118 -13 48 -60 106 -102 128 -33 17 -145
18 -174 2z m120 -104 c20 -8 45 -56 45 -89 0 -25 0 -25 -86 -25 l-86 0 6 32
c12 62 70 101 121 82z"/>
<path d="M16315 11862 l-50 -17 -3 -62 c-2 -35 -1 -63 2 -63 3 0 26 11 52 25
66 35 135 35 163 -1 12 -15 21 -36 21 -48 0 -20 -8 -23 -81 -34 -101 -14 -153
-42 -179 -97 -25 -52 -27 -143 -3 -192 43 -91 179 -99 242 -16 l20 28 1 -37 0
-38 60 0 60 0 0 218 c0 206 -1 220 -22 262 -34 67 -75 90 -162 90 -40 -1 -93
-8 -121 -18z m185 -322 c0 -47 -22 -95 -49 -110 -78 -41 -146 40 -88 104 19
22 51 33 130 45 4 0 7 -17 7 -39z"/>
<path d="M17834 11861 c-17 -10 -40 -32 -52 -47 l-21 -29 -1 43 0 42 -65 0
-65 0 0 -280 0 -280 65 0 65 0 0 143 c0 173 12 252 41 284 35 37 80 29 104
-18 12 -22 15 -71 15 -219 l0 -190 70 0 70 0 0 180 c0 133 4 190 14 215 26 61
83 72 120 22 19 -26 21 -44 24 -223 l4 -194 64 0 64 0 0 208 c0 238 -10 293
-61 336 -25 21 -41 26 -85 26 -64 0 -104 -18 -134 -61 l-22 -30 -18 29 c-10
16 -29 37 -41 46 -33 22 -116 21 -155 -3z"/>
<path d="M18535 11862 l-50 -17 -3 -62 c-2 -35 -1 -63 2 -63 3 0 26 11 52 25
66 35 135 35 163 -1 12 -15 21 -36 21 -48 0 -20 -8 -23 -81 -34 -101 -14 -153
-42 -179 -97 -25 -52 -27 -143 -3 -192 43 -91 179 -99 242 -16 l20 28 1 -37 0
-38 60 0 60 0 0 218 c0 206 -1 220 -22 262 -34 67 -75 90 -162 90 -40 -1 -93
-8 -121 -18z m185 -322 c0 -74 -37 -120 -98 -120 -34 0 -49 15 -58 57 -11 55
31 84 149 102 4 0 7 -17 7 -39z"/>
<path d="M19133 11835 l-43 -45 0 40 0 40 -65 0 -65 0 0 -280 0 -280 65 0 65
0 0 168 c0 185 8 231 47 262 35 27 65 25 94 -6 23 -25 24 -30 27 -225 l3 -199
65 0 64 0 0 216 c0 243 -6 280 -57 324 -29 26 -41 30 -95 30 -60 0 -63 -1
-105 -45z"/>
<path d="M21945 11868 c-35 -19 -86 -72 -105 -108 -28 -55 -43 -147 -36 -219
13 -120 67 -203 152 -231 48 -16 169 -8 212 14 31 16 32 19 32 76 l0 60 -40
-20 c-25 -13 -59 -20 -96 -20 -50 0 -59 3 -90 34 -21 21 -34 44 -34 60 l0 25
148 3 147 3 -1 75 c0 41 -6 94 -13 118 -13 48 -60 106 -102 128 -33 17 -145
18 -174 2z m120 -104 c20 -8 45 -56 45 -89 0 -25 0 -25 -86 -25 l-86 0 6 32
c12 62 70 101 121 82z"/>
<path d="M22524 11861 c-17 -10 -40 -32 -52 -47 l-21 -29 -1 43 0 42 -65 0
-65 0 0 -410 0 -410 65 0 65 0 0 161 0 161 40 -36 c35 -31 47 -36 91 -36 57 0
92 15 130 57 58 62 85 166 76 291 -6 98 -29 154 -80 197 -36 31 -47 35 -96 35
-37 0 -66 -6 -87 -19z m70 -112 c42 -20 59 -70 54 -166 -5 -90 -21 -124 -70
-152 -21 -12 -30 -12 -57 -1 -40 16 -62 57 -68 129 -7 72 11 137 47 173 31 30
55 35 94 17z"/>
<path d="M22945 11862 l-50 -17 -3 -62 c-2 -35 -1 -63 2 -63 3 0 26 11 52 25
66 35 135 35 163 -1 12 -15 21 -36 21 -48 0 -20 -8 -23 -81 -34 -101 -14 -153
-42 -179 -97 -25 -52 -27 -143 -3 -192 43 -91 179 -99 242 -16 l20 28 1 -37 0
-38 60 0 60 0 0 218 c0 206 -1 220 -22 262 -34 67 -75 90 -162 90 -40 -1 -93
-8 -121 -18z m185 -322 c0 -74 -37 -120 -98 -120 -34 0 -49 15 -58 57 -11 55
31 84 149 102 4 0 7 -17 7 -39z"/>
<path d="M9780 11590 l0 -280 65 0 65 0 0 280 0 280 -65 0 -65 0 0 -280z"/>
<path d="M20072 11638 c3 -224 4 -234 26 -271 29 -46 68 -67 122 -67 51 0 91
20 124 62 l26 33 0 -42 0 -43 65 0 65 0 0 280 0 280 -65 0 -65 0 0 -167 c0
-186 -8 -232 -47 -263 -34 -26 -56 -25 -90 4 l-28 24 -3 201 -3 201 -65 0 -65
0 3 -232z"/>
<path d="M15151 11318 c-12 -73 -21 -136 -21 -140 0 -5 22 -8 49 -8 39 0 51 4
55 18 13 45 56 235 56 248 0 10 -15 14 -58 14 l-59 0 -22 -132z"/>
<path d="M20601 11318 c-12 -73 -21 -136 -21 -140 0 -5 22 -8 49 -8 39 0 51 4
55 18 13 45 56 235 56 248 0 10 -15 14 -58 14 l-59 0 -22 -132z"/>
</g>
</svg>
