<svg width="109" height="60" viewBox="0 0 109 60" fill="none" xmlns="http://www.w3.org/2000/svg">
<path d="M57.0766 24.1496H33.9952V35.919H57.0766V24.1496Z" fill="white"/>
<path d="M43.8639 8.99005H20.7826V20.8109H43.8639V8.99005Z" fill="white"/>
<path d="M43.8639 39.2028H20.7826V51.0237H43.8639V39.2028Z" fill="white"/>
<path d="M56.5974 17.5203C56.5974 15.935 55.8056 14.9948 54.4306 14.6483C54.8698 14.4007 55.2299 14.0363 55.4699 13.5966C55.71 13.1568 55.8203 12.6592 55.7883 12.1606C55.7883 9.98512 54.4479 8.97632 52.1249 8.97632H47.319V20.8075H52.8298C55.2396 20.8075 56.5974 19.5894 56.5974 17.5203ZM50.3296 11.3439H51.6144C52.4061 11.3439 52.7395 11.7248 52.7395 12.4214C52.7395 13.1179 52.3922 13.5537 51.5797 13.5537H50.3296V11.3439ZM50.3296 18.4056V16.0242H52.1804C53.0798 16.0242 53.4479 16.4943 53.4479 17.2424C53.4479 17.9904 53.1006 18.4056 52.2707 18.4056H50.3296Z" fill="white"/>
<path d="M68.0773 15.9899V8.97632H65.0493V15.7806C65.0493 17.4311 64.5041 18.2512 63.2019 18.2512C61.8998 18.2512 61.3859 17.4654 61.3859 15.7978V8.97632H58.3579V15.9899C58.3579 19.0507 59.8371 20.9996 63.2193 20.9996C66.6015 20.9996 68.0773 18.8242 68.0773 15.9899Z" fill="white"/>
<path d="M73.5359 8.97977H70.508V20.8109H73.5359V8.97977Z" fill="white"/>
<path d="M83.9429 18.2169H79.1196V8.97632H76.0882V20.8075H83.9429V18.2169Z" fill="white"/>
<path d="M95.5478 14.9091C95.5478 11.0831 93.2941 8.97632 90.2801 8.97632H85.4742V20.8075H90.2801C93.2941 20.8075 95.5478 18.7212 95.5478 14.9091ZM88.5022 18.2169V11.5704H89.8911C91.5475 11.5704 92.4781 12.7508 92.4781 14.9091C92.4781 17.0674 91.5475 18.2169 89.8738 18.2169H88.5022Z" fill="white"/>
<path d="M66.8966 30.8784C66.8966 32.5289 66.3515 33.349 65.0493 33.349C63.7471 33.349 63.2367 32.5632 63.2367 30.8956V24.0741H60.2052V31.0877C60.2052 34.1485 61.6845 36.0974 65.0493 36.0974C68.4141 36.0974 69.9107 33.922 69.9107 31.0877V24.0741H66.8827L66.8966 30.8784Z" fill="white"/>
<path d="M72.0046 24.0741V35.9053H75.0326V32.7897H77.3209C79.3627 32.7897 81.1406 31.1735 81.1406 28.4594C81.1406 25.4672 79.3592 24.0741 77.3209 24.0741H72.0046ZM78.0779 28.4422C78.0779 29.5025 77.4459 30.199 76.6542 30.199H75.0326V26.6682H76.6542C77.4459 26.6682 78.0779 27.3442 78.0779 28.4422Z" fill="white"/>
<path d="M54.3785 45.9934L49.906 39.1754H47.3016V51.0031H50.3122V44.2022L54.7847 51.0031H57.4238V39.1754H54.3785V45.9934Z" fill="white"/>
<path d="M59.9795 51.0031H68.3411V48.4125H62.8651V46.2198H67.2508V43.7493H62.8651V41.7832H68.3411V39.1754H59.9795V51.0031Z" fill="white"/>
<path d="M75.7375 39.1719H70.4212V51.0031H73.4491V47.8874H75.7375C77.7793 47.8874 79.5572 46.2713 79.5572 43.5571C79.5572 40.565 77.7793 39.1719 75.7375 39.1719ZM75.0673 45.2968H73.4491V41.766H75.0673C75.859 41.766 76.4945 42.4522 76.4945 43.54C76.4945 44.6277 75.859 45.2968 75.0673 45.2968Z" fill="white"/>
<path d="M83.3977 39.1719L79.6127 51.0031H82.606L83.2032 48.8619H87.0785L87.6584 51.0031H90.669L86.9048 39.1719H83.3977ZM83.9428 46.6522L85.1582 42.1297L86.3562 46.6522H83.9428Z" fill="white"/>
<path d="M95.0894 48.4125V39.1754H92.0614V51.0031H99.9126V48.4125H95.0894Z" fill="white"/>
<path d="M30.6513 24.1496H7.56993V35.919H30.6513V24.1496Z" fill="white"/>
</svg>
