<svg width="64" height="64" viewBox="0 0 64 64" fill="none" xmlns="http://www.w3.org/2000/svg">
<path fill-rule="evenodd" clip-rule="evenodd" d="M43.1378 45.1289L33.5422 42.7511L24.6956 51.3533C23.9711 52.0578 23.0178 52.4444 22.0089 52.4444C20.12 52.4444 18.6667 50.9089 18.6667 49.1067V39.0644L9.48889 19.1111H6.44445C5.75334 19.1111 5.33334 18.5333 5.33334 18C5.33334 17.4689 5.75334 16.8889 6.44445 16.8889H10.9444L20.2644 37.1822L43.3311 42.8911C44.1378 39.46 47.22 36.9022 50.8956 36.9022C55.1845 36.9022 58.6667 40.3844 58.6667 44.6733C58.6667 48.9622 55.1845 52.4444 50.8956 52.4444C46.76 52.4444 43.3733 49.2067 43.1378 45.1289ZM20.8889 39.6156V49.1067C20.8889 50.1733 22.2489 50.6356 23.1489 49.76L31.0022 42.1222L20.8889 39.6156ZM50.8956 41.8956C52.4289 41.8956 53.6733 43.14 53.6733 44.6733C53.6733 46.2067 52.4289 47.4511 50.8956 47.4511C49.3622 47.4511 48.1178 46.2067 48.1178 44.6733C48.1178 43.14 49.3622 41.8956 50.8956 41.8956ZM54.2222 21.34L15.3711 21.3333L20.8244 33.26C21.3933 34.5067 22.5044 35.42 23.8378 35.7356L38.4889 39.2267C40.2778 39.6533 42.1422 38.9333 43.1822 37.4178L54.2222 21.34ZM32 19.1111H20.8889V14.6667H32V19.1111ZM45.3333 19.1111H34.2222V14.6667H45.3333V19.1111ZM38.6667 12.4444H27.5556V8H38.6667V12.4444Z" fill="#D24246"/>
</svg>
