<svg width="156" height="87" viewBox="0 0 156 87" fill="none" xmlns="http://www.w3.org/2000/svg">
<path d="M81.6876 35.0166H48.6537V52.0823H81.6876V35.0166Z" fill="#0061B3"/>
<path d="M62.7777 13.0352H29.7439V30.1754H62.7777V13.0352Z" fill="#0061B3"/>
<path d="M62.7777 56.8438H29.7439V73.984H62.7777V56.8438Z" fill="#0061B3"/>
<path d="M67.7226 13.0156H74.6256C77.9503 13.0156 79.8686 14.4784 79.8686 17.6328C79.9144 18.3559 79.7565 19.0773 79.413 19.715C79.0695 20.3527 78.5541 20.881 77.9255 21.24C79.9134 21.7375 81.0266 23.1058 81.0266 25.4044C81.0266 28.3896 79.0834 30.1708 75.6096 30.1708H67.7226V13.0156ZM72.0562 19.6777H73.8453C75.0281 19.6777 75.5052 19.0458 75.5052 18.0358C75.5052 17.0258 75.0082 16.4735 73.895 16.4735H72.0562V19.6777ZM72.0562 26.7129H74.8293C76.037 26.7129 76.5141 26.0611 76.5141 25.0263C76.5141 23.9914 75.9873 23.26 74.7001 23.26H72.0562V26.7129Z" fill="#E54647"/>
<path d="M87.855 22.9067C87.855 25.3248 88.6104 26.4642 90.4542 26.4642C92.2979 26.4642 93.0981 25.275 93.0981 22.8819V13.0156H97.4317V23.1854C97.4317 27.2951 95.3146 30.4495 90.4741 30.4495C85.6335 30.4495 83.5164 27.6234 83.5164 23.1854V13.0156H87.85L87.855 22.9067Z" fill="#E54647"/>
<path d="M100.911 13.0156H105.244V30.1708H100.911V13.0156Z" fill="#E54647"/>
<path d="M108.897 30.1708V13.0156H113.235V26.4144H120.138V30.1708H108.897Z" fill="#E54647"/>
<path d="M122.33 13.0156H129.208C133.522 13.0156 136.747 16.0705 136.747 21.6181C136.747 27.1657 133.522 30.1708 129.208 30.1708H122.33V13.0156ZM128.632 26.4144C131.027 26.4144 132.359 24.6979 132.359 21.6181C132.359 18.5383 131.027 16.777 128.657 16.777H126.669V26.4144H128.632Z" fill="#E54647"/>
<path d="M90.4989 44.7983C90.4989 47.2164 91.2593 48.3558 93.0981 48.3558C94.9369 48.3558 95.742 47.1666 95.742 44.7735V34.9072H100.076V45.077C100.076 49.1866 97.9584 52.341 93.1179 52.341C88.2774 52.341 86.1852 49.515 86.1852 45.077V34.9072H90.5188L90.4989 44.7983Z" fill="#E54647"/>
<path d="M103.052 34.9072H110.661C113.583 34.9072 116.128 36.9272 116.128 41.2658C116.128 45.2013 113.578 47.5448 110.661 47.5448H107.386V52.0624H103.052V34.9072ZM107.386 38.6686V43.7883H109.707C110.84 43.7883 111.745 42.7932 111.745 41.2409C111.745 39.6886 110.84 38.6686 109.707 38.6686H107.386Z" fill="#E54647"/>
<path d="M72.0065 64.0928V73.954H67.7226V56.7988H71.4499L77.8509 66.6899V56.7988H82.2094V73.954H78.4324L72.0065 64.0928Z" fill="#E54647"/>
<path d="M85.8423 73.954V56.7988H97.8094V60.5851H89.9721V63.436H96.2489V67.0183H89.9721V70.1976H97.8094V73.954H85.8423Z" fill="#E54647"/>
<path d="M100.786 56.7988H108.395C111.317 56.7988 113.862 58.8188 113.862 63.1574C113.862 67.093 111.317 69.4364 108.395 69.4364H105.12V73.954H100.786V56.7988ZM105.12 60.5602V65.6799H107.436C108.569 65.6799 109.478 64.6848 109.478 63.1325C109.478 61.5802 108.569 60.5602 107.436 60.5602H105.12Z" fill="#E54647"/>
<path d="M119.358 56.7988H124.378L129.745 73.954H125.436L124.606 70.8494H119.08L118.225 73.954H113.941L119.358 56.7988ZM120.138 67.6452H123.592L121.893 61.0876L120.138 67.6452Z" fill="#E54647"/>
<path d="M131.758 73.954V56.7988H136.091V70.1976H142.994V73.954H131.758Z" fill="#E54647"/>
<path d="M43.8679 35.0166H10.834V52.0823H43.8679V35.0166Z" fill="#0061B3"/>
</svg>
