<svg width="64" height="64" viewBox="0 0 64 64" fill="none" xmlns="http://www.w3.org/2000/svg">
<path fill-rule="evenodd" clip-rule="evenodd" d="M35.5002 28.4598C34.5747 28.4598 33.8584 28.8156 33.3544 29.5302C32.8503 30.2448 32.5968 31.289 32.5909 32.6685V33.316C32.5909 34.6694 32.8415 35.7194 33.3455 36.469C33.8466 37.2156 34.5747 37.589 35.5208 37.589C36.4464 37.589 37.1567 37.2302 37.6549 36.5098C38.15 35.7894 38.4035 34.7394 38.4094 33.3627V32.7152C38.4094 31.324 38.1559 30.2681 37.6549 29.5448C37.1508 28.8215 36.4316 28.4598 35.5002 28.4598Z" fill="#D24246"/>
<path fill-rule="evenodd" clip-rule="evenodd" d="M49.4033 42.1258H43.5258V40.8658L46.2346 38.0512C46.9008 37.2987 47.2338 36.7008 47.2338 36.2575C47.2338 35.8987 47.1543 35.6246 46.998 35.4379C46.8389 35.2512 46.609 35.1579 46.3083 35.1579C46.0136 35.1579 45.7719 35.2833 45.5862 35.5312C45.4005 35.7821 45.3061 36.0971 45.3061 36.4704H43.3519C43.3519 35.9571 43.4786 35.4875 43.738 35.05C43.9974 34.6183 44.357 34.28 44.8139 34.0379C45.2767 33.7929 45.7866 33.6704 46.3555 33.6704C47.2633 33.6704 47.9678 33.8775 48.46 34.2917C48.9493 34.7087 49.1969 35.3067 49.1969 36.0854C49.1969 36.415 49.1321 36.7329 49.0112 37.045C48.8874 37.3542 48.6958 37.6837 48.4365 38.025C48.1741 38.3662 47.7526 38.8212 47.1749 39.3929L46.0872 40.6354H49.4033V42.1258ZM41.209 33.3146C41.209 34.6212 40.9791 35.7646 40.5104 36.7504C40.0388 37.7333 39.3786 38.4946 38.5091 39.0283C37.6395 39.5621 36.6432 39.8304 35.5202 39.8304C34.409 39.8304 33.4157 39.565 32.5432 39.0371C31.6707 38.5092 30.9957 37.7537 30.5182 36.7737C30.0407 35.7908 29.796 34.6621 29.7902 33.3875V32.7312C29.7902 31.4275 30.0289 30.2783 30.5035 29.2837C30.981 28.2892 31.653 27.5279 32.5196 26.9971C33.3891 26.4662 34.3825 26.2008 35.4996 26.2008C36.6167 26.2008 37.61 26.4662 38.4796 26.9971C39.3491 27.5279 40.0153 28.2892 40.4957 29.2837C40.9732 30.2783 41.209 31.4246 41.209 32.7225V33.3146ZM19.7802 36.6046C20.2165 37.2667 20.9091 37.5962 21.8553 37.5962C22.7072 37.5962 23.3468 37.4067 23.7653 37.0187C24.1868 36.6337 24.4256 36.0358 24.4875 35.2308H27.2494C27.1462 36.6571 26.6156 37.78 25.6518 38.5996C24.6938 39.4192 23.4264 39.8304 21.8553 39.8304C20.1369 39.8304 18.7839 39.2587 17.7995 38.1125C16.812 36.9662 16.3198 35.3942 16.3198 33.3992V32.5854C16.3198 31.3108 16.5497 30.1879 17.0036 29.2167C17.4575 28.2425 18.106 27.4987 18.949 26.9796C19.795 26.4575 20.7736 26.2008 21.8936 26.2008C23.4382 26.2008 24.685 26.6092 25.6311 27.4287C26.5744 28.2483 27.1226 29.4004 27.27 30.8821H24.5081C24.4403 30.0275 24.1986 29.4062 23.786 29.0183C23.3704 28.6333 22.7396 28.4408 21.8936 28.4408C20.971 28.4408 20.2813 28.7675 19.8244 29.4208C19.3676 30.0742 19.1318 31.0862 19.12 32.46V33.4604C19.12 34.8954 19.341 35.9425 19.7802 36.6046ZM47.7644 20.2917H47.1749C43.9326 14.4583 37.7427 10.6667 30.6685 10.6667C22.1206 10.6667 15.0464 16.2083 12.6884 23.7917C7.088 24.9583 2.66666 29.9167 2.66666 35.75C2.66666 42.4583 7.97227 48 14.7517 48H47.4697C55.1333 48 61.3232 41.875 61.3232 34.2917C61.618 26.4167 55.4281 20.2917 47.7644 20.2917Z" fill="#D24246"/>
</svg>
