<svg width="64" height="64" viewBox="0 0 64 64" fill="none" xmlns="http://www.w3.org/2000/svg">
<path fill-rule="evenodd" clip-rule="evenodd" d="M43.4627 34.7736C46.8255 37.0564 49.1818 40.1491 49.1818 44.2727V51.6364H59V44.2727C59 38.9218 50.2373 35.7555 43.4627 34.7736Z" fill="#D24246"/>
<path fill-rule="evenodd" clip-rule="evenodd" d="M39.3636 32C44.7882 32 49.1818 27.6064 49.1818 22.1818C49.1818 16.7573 44.7882 12.3636 39.3636 12.3636C38.21 12.3636 37.13 12.6091 36.0991 12.9527C38.1364 15.4809 39.3636 18.6964 39.3636 22.1818C39.3636 25.6673 38.1364 28.8827 36.0991 31.4109C37.13 31.7546 38.21 32 39.3636 32Z" fill="#D24246"/>
<path fill-rule="evenodd" clip-rule="evenodd" d="M24.6364 34.4545C18.0827 34.4545 5 37.7436 5 44.2727V51.6364H44.2727V44.2727C44.2727 37.7436 31.19 34.4545 24.6364 34.4545Z" fill="#D24246"/>
<path fill-rule="evenodd" clip-rule="evenodd" d="M24.5 31.9375C29.0338 31.9375 32.8119 28.8175 33.9087 24.625H15.0913C16.1881 28.8175 19.9662 31.9375 24.5 31.9375ZM14.1162 22.1875H34.9081C35.5663 22.1875 36.1025 21.6513 36.1025 20.9931V20.9444C36.1025 20.2862 35.5663 19.75 34.9081 19.75H34.25C34.25 16.1425 32.2756 13.0469 29.375 11.3406V13.6562C29.375 14.3387 28.8387 14.875 28.1562 14.875C27.4738 14.875 26.9375 14.3387 26.9375 13.6562V10.3413C26.1575 10.1463 25.3531 10 24.5 10C23.6469 10 22.8425 10.1463 22.0625 10.3413V13.6562C22.0625 14.3387 21.5262 14.875 20.8438 14.875C20.1613 14.875 19.625 14.3387 19.625 13.6562V11.3406C16.7244 13.0469 14.75 16.1425 14.75 19.75H14.1162C13.4581 19.75 12.9219 20.2862 12.9219 20.9444V21.0175C12.9219 21.6512 13.4581 22.1875 14.1162 22.1875Z" fill="#D24246"/>
</svg>
