<?xml version="1.0" standalone="no"?>
<!DOCTYPE svg PUBLIC "-//W3C//DTD SVG 20010904//EN"
 "http://www.w3.org/TR/2001/REC-SVG-20010904/DTD/svg10.dtd">
<svg version="1.0" xmlns="http://www.w3.org/2000/svg"
 width="1594.000000pt" height="2310.000000pt" viewBox="0 0 1594.000000 2310.000000"
 preserveAspectRatio="xMidYMid meet">

<g transform="translate(0.000000,2310.000000) scale(0.100000,-0.100000)"
fill="#000000" stroke="none">
<path d="M8424 23074 c-18 -27 -17 -80 6 -344 13 -136 7 -243 -14 -294 -10
-24 -11 -47 -5 -85 20 -128 -35 -333 -156 -579 -85 -173 -161 -301 -353 -590
-218 -329 -334 -553 -426 -824 -53 -156 -116 -413 -116 -476 0 -124 93 -475
177 -665 73 -167 156 -277 219 -293 16 -4 39 0 60 9 59 28 44 80 -55 197 -78
91 -86 107 -139 295 -82 286 -95 354 -95 490 0 140 19 217 104 411 28 66 78
181 110 258 69 165 119 250 290 497 151 219 227 344 269 446 17 41 62 141 100
221 37 81 76 170 85 198 9 28 38 91 65 139 l49 87 -15 57 c-12 48 -12 65 -2
97 22 67 41 56 78 -48 18 -51 77 -205 130 -343 194 -498 255 -730 267 -1005 5
-124 3 -145 -22 -250 -22 -89 -29 -143 -30 -240 -2 -86 -9 -151 -23 -210 -48
-198 -156 -456 -209 -501 -15 -13 -37 -37 -47 -54 -56 -88 -204 -229 -339
-323 -59 -41 -62 -42 -121 -36 -53 5 -65 3 -96 -18 -70 -47 -113 -195 -76
-266 23 -44 47 -55 112 -46 33 4 71 2 97 -5 52 -15 100 0 194 60 36 22 87 46
115 52 47 11 61 23 186 152 184 191 259 279 294 350 17 33 57 109 90 168 78
140 101 213 93 292 -8 76 6 183 56 415 54 247 62 329 49 454 -33 297 -161 655
-480 1346 -67 146 -151 330 -185 410 -97 224 -195 383 -250 408 -22 10 -27 9
-41 -14z"/>
<path d="M7848 18637 c-98 -37 -205 -126 -238 -200 -13 -28 -20 -65 -20 -111
0 -56 -10 -97 -56 -233 -52 -154 -56 -171 -52 -242 2 -56 10 -89 28 -126 22
-45 24 -55 13 -87 -6 -19 -16 -87 -22 -149 -10 -108 -13 -119 -60 -209 -84
-163 -79 -217 26 -333 92 -102 111 -146 125 -304 13 -142 6 -183 -35 -205 -31
-16 -103 -10 -202 17 -105 29 -202 32 -272 9 -96 -33 -170 -107 -162 -163 7
-42 51 -65 134 -69 98 -5 185 11 325 59 121 42 192 51 282 36 l48 -8 -15 -29
c-22 -42 -88 -69 -196 -81 -52 -5 -115 -14 -141 -19 -45 -9 -278 -128 -385
-196 -50 -32 -53 -36 -53 -76 0 -51 -22 -99 -84 -191 -25 -38 -46 -79 -46 -92
0 -13 12 -47 28 -76 23 -45 27 -65 27 -134 0 -75 -3 -85 -45 -165 -100 -192
-104 -201 -104 -270 0 -44 5 -76 17 -98 12 -22 15 -37 9 -45 -29 -35 -45 -133
-40 -244 5 -98 3 -113 -11 -118 -30 -9 -155 -24 -261 -30 -211 -13 -267 -27
-788 -200 -593 -196 -713 -233 -909 -280 -254 -60 -306 -75 -361 -100 -43 -20
-56 -32 -71 -67 -10 -24 -27 -50 -37 -59 -24 -21 -301 -156 -335 -164 -17 -4
-49 2 -91 19 -80 32 -116 33 -177 2 -110 -56 -211 -183 -211 -266 0 -69 87
-158 140 -145 108 26 186 11 214 -44 30 -58 -15 -109 -116 -131 -69 -14 -109
-33 -151 -70 -76 -67 -35 -115 98 -114 71 0 100 7 260 61 99 34 201 71 227 82
113 48 158 33 158 -54 l0 -45 43 0 c23 0 82 5 131 10 49 6 91 9 93 6 2 -2 -12
-36 -32 -75 -45 -90 -53 -145 -30 -192 32 -63 154 -213 221 -273 138 -123 139
-172 5 -273 -206 -155 -283 -273 -310 -479 -22 -168 29 -228 148 -174 24 11
45 20 47 20 2 0 4 -13 4 -30 0 -35 8 -37 59 -10 35 18 40 18 52 4 34 -41 -11
-235 -79 -340 -21 -32 -60 -78 -85 -102 -42 -37 -47 -48 -53 -95 -8 -79 14
-112 108 -165 45 -24 90 -58 105 -79 25 -33 28 -44 27 -117 0 -63 -7 -102 -32
-177 -18 -53 -32 -99 -32 -103 0 -3 11 -6 24 -6 69 0 116 -44 116 -110 0 -68
-62 -217 -164 -395 -57 -98 -86 -188 -86 -266 l0 -59 61 0 c34 0 91 5 126 12
78 14 83 10 83 -74 0 -87 -29 -149 -130 -278 -96 -121 -130 -176 -130 -210 0
-30 45 -27 168 12 116 36 122 34 122 -36 0 -88 -80 -192 -319 -413 -193 -178
-276 -292 -269 -366 3 -28 7 -32 36 -35 44 -4 104 16 307 105 93 41 182 77
197 80 27 5 28 5 28 -41 0 -70 -21 -108 -109 -196 -93 -94 -95 -100 -96 -300
0 -119 1 -125 21 -128 13 -2 38 11 64 33 51 43 76 43 72 0 -4 -43 -31 -122
-59 -179 -47 -94 -157 -186 -222 -186 -21 0 -21 1 -7 22 21 30 20 61 -2 81
-28 26 -127 22 -177 -6 -43 -24 -85 -91 -85 -137 0 -14 18 -77 40 -140 41
-118 49 -184 29 -236 -5 -16 -42 -67 -81 -116 -122 -151 -198 -184 -323 -139
-48 17 -50 19 -55 62 -5 41 -8 46 -53 68 -43 21 -67 24 -250 32 -126 6 -383 5
-682 -2 -264 -6 -786 -12 -1159 -15 -374 -2 -680 -5 -681 -7 -26 -43 -56 -73
-89 -88 -46 -21 -106 -25 -123 -8 -13 13 -105 9 -328 -15 -249 -28 -368 -61
-433 -120 -30 -28 -33 -35 -23 -53 14 -27 95 -58 191 -72 101 -15 625 -58 884
-72 155 -8 308 -8 595 0 394 12 783 4 1041 -20 87 -8 152 -8 267 1 160 13 215
10 267 -17 l31 -16 -25 -8 c-14 -4 -146 -12 -295 -18 -366 -15 -468 -35 -516
-102 -61 -86 -13 -212 109 -290 l43 -27 -52 -11 c-84 -18 -218 -38 -469 -71
-399 -51 -623 -91 -681 -121 -68 -34 -75 -85 -16 -116 38 -19 106 -21 363 -9
100 5 189 6 197 3 15 -6 15 -9 1 -44 -11 -24 -15 -56 -12 -91 4 -45 10 -59 43
-92 130 -133 517 -166 1340 -115 138 9 302 14 365 13 114 -3 115 -3 70 -17
-75 -22 -257 -59 -558 -111 -503 -88 -665 -134 -713 -202 -30 -42 -36 -116
-15 -173 21 -55 98 -127 154 -143 86 -26 217 -11 952 108 945 154 1075 164
2300 180 950 12 1105 20 1660 84 278 32 468 41 543 27 32 -6 114 -33 184 -61
69 -28 148 -54 174 -57 43 -5 51 -2 86 26 22 18 49 31 65 31 l28 0 -20 41
c-12 22 -41 91 -65 152 -42 110 -44 113 -96 145 -117 71 -143 77 -359 76 -126
0 -269 -7 -405 -21 -115 -12 -249 -25 -296 -28 -85 -6 -278 8 -334 24 -28 8
-24 10 58 35 126 39 267 73 382 92 l100 17 70 101 70 101 -75 77 c-42 42 -93
85 -115 94 -47 20 -141 23 -361 10 l-152 -9 2 55 c1 46 -4 63 -33 109 -19 30
-43 68 -53 86 l-19 32 43 24 c24 14 63 31 88 38 70 19 229 13 415 -15 185 -28
244 -31 348 -16 82 12 177 0 302 -38 69 -20 111 -27 181 -27 l91 0 144 73
c246 124 394 150 924 162 416 10 485 20 485 74 0 23 -34 60 -90 98 -24 16 -24
17 -7 35 15 15 31 18 112 15 111 -3 156 11 180 57 38 75 36 179 -5 201 -37 20
-140 11 -253 -21 -105 -30 -115 -31 -246 -26 -150 6 -199 17 -242 58 -35 33
-37 64 -6 110 35 53 100 83 177 84 l65 1 17 54 c9 30 17 76 17 102 1 39 -3 50
-25 67 -46 36 -107 24 -300 -57 -179 -75 -208 -79 -179 -22 19 38 19 123 0
161 -47 91 -156 35 -185 -95 -19 -85 5 -136 62 -136 31 0 31 0 12 -21 -29 -32
-144 -114 -199 -142 -74 -37 -151 -57 -218 -57 l-59 0 7 42 c10 60 36 106 103
185 73 86 155 193 151 197 -2 2 -17 10 -34 19 -16 8 -43 33 -60 56 -44 60 -79
75 -156 69 -81 -7 -138 -34 -225 -106 -85 -71 -134 -106 -140 -99 -3 2 14 28
36 56 50 63 159 151 310 249 184 120 323 214 503 340 93 65 257 175 367 245
l198 128 23 62 c30 78 32 156 5 186 -29 32 -90 44 -191 37 -118 -7 -272 -48
-562 -146 -130 -44 -245 -80 -255 -80 -51 0 49 89 274 244 128 89 338 249 608
465 52 42 157 136 232 210 162 157 198 215 198 314 0 102 -36 149 -127 166
-71 14 -171 -5 -353 -64 -90 -30 -166 -53 -168 -51 -2 2 63 55 145 117 184
141 345 295 376 360 15 32 30 49 47 54 87 23 76 114 -21 185 -68 49 -109 56
-209 36 -211 -43 -434 -132 -925 -369 -165 -80 -311 -148 -325 -151 -54 -15
92 101 252 199 286 175 378 257 378 335 0 49 -27 82 -95 116 -145 71 -307 33
-640 -150 -267 -147 -394 -206 -444 -206 -24 0 -8 11 175 123 214 131 311 195
396 264 73 59 128 132 128 170 0 62 -78 153 -147 172 -84 24 -166 7 -387 -78
-147 -57 -258 -87 -278 -75 -5 3 9 15 32 26 61 31 109 94 206 275 98 182 136
234 198 264 77 40 143 96 166 144 23 47 23 47 3 73 -56 76 -225 69 -419 -18
-36 -17 -68 -30 -71 -30 -13 0 37 47 130 122 114 93 157 146 157 195 0 31 -2
33 -32 33 -69 0 -262 -104 -513 -275 -66 -45 -209 -135 -319 -200 -109 -65
-237 -146 -285 -180 -47 -35 -88 -61 -89 -60 -2 2 13 30 35 62 80 121 269 287
588 517 161 116 180 134 224 212 30 52 105 111 236 184 33 19 89 53 125 76 36
22 130 74 209 114 78 40 159 86 178 103 32 29 35 34 30 75 -6 54 -38 90 -93
102 -73 17 -368 -27 -529 -80 -33 -11 -118 -35 -190 -54 -71 -19 -179 -57
-240 -84 -118 -54 -174 -72 -218 -72 -26 0 -27 2 -16 22 24 45 116 131 195
184 173 115 524 256 766 308 36 8 68 62 68 116 0 38 -5 49 -43 84 -84 81 -157
84 -420 17 -195 -49 -311 -70 -292 -53 18 17 437 294 529 349 50 31 143 97
207 148 64 52 148 114 185 138 38 25 110 88 161 140 51 53 102 99 115 101 70
15 291 46 326 46 22 0 53 -5 69 -12 l28 -12 -30 -4 c-66 -8 -86 -68 -39 -113
24 -22 33 -24 137 -24 l112 0 42 -42 c62 -65 110 -57 346 54 280 131 363 141
457 57 45 -41 56 -74 36 -112 -20 -38 -58 -66 -210 -152 -142 -80 -202 -128
-223 -177 -21 -52 -17 -60 38 -78 67 -22 120 -16 229 30 81 33 187 49 178 26
-1 -4 -46 -44 -98 -88 -177 -148 -240 -239 -240 -343 0 -107 81 -220 158 -220
39 0 73 19 177 96 46 35 45 32 -20 -32 -131 -129 -272 -320 -347 -469 -73
-144 -11 -253 137 -242 78 6 97 16 230 127 137 113 205 159 261 176 70 21 57
-3 -58 -108 -302 -275 -348 -338 -356 -493 -4 -72 -2 -83 19 -109 21 -27 25
-28 83 -23 41 3 96 20 168 50 105 44 168 64 168 53 0 -3 -47 -68 -103 -144
-155 -205 -197 -283 -197 -365 0 -63 30 -88 113 -94 88 -7 143 20 272 132 55
48 112 94 128 103 15 9 27 23 27 32 0 32 54 123 109 183 52 57 307 267 323
267 5 0 8 -10 8 -22 0 -13 3 -40 6 -61 6 -35 3 -41 -35 -77 -23 -22 -50 -40
-60 -40 -10 0 -29 -8 -41 -18 -32 -26 -20 -72 28 -112 43 -36 63 -13 -168
-195 -335 -264 -520 -483 -520 -616 0 -65 161 -281 263 -353 55 -39 62 -41
130 -41 77 0 90 6 275 115 40 23 76 40 80 36 4 -4 7 -47 6 -94 -1 -133 -35
-203 -199 -409 -108 -136 -155 -228 -162 -317 -6 -64 -5 -65 21 -72 55 -13
141 36 275 158 35 32 67 55 72 52 14 -9 10 -92 -6 -131 -27 -64 -63 -101 -190
-196 -121 -91 -426 -355 -517 -450 -67 -69 -128 -163 -128 -198 0 -26 3 -29
34 -29 51 0 79 13 197 91 109 72 194 108 213 89 12 -12 -5 -72 -44 -145 -26
-50 -40 -115 -25 -115 33 0 101 64 228 216 42 51 91 104 108 118 29 25 100 66
114 66 3 0 5 -84 5 -186 0 -173 -1 -186 -17 -179 -75 29 -150 5 -235 -73 -134
-124 -227 -283 -236 -400 -9 -136 27 -160 257 -173 85 -5 178 -16 207 -24 70
-20 141 -97 196 -211 35 -72 42 -98 46 -164 4 -72 2 -83 -23 -127 -15 -26 -66
-85 -113 -130 l-85 -81 6 -54 c3 -29 8 -63 12 -74 6 -20 -3 -25 -138 -68 -158
-51 -244 -98 -276 -150 -35 -55 -28 -81 27 -108 45 -22 57 -23 257 -23 116 0
220 -1 233 -3 30 -3 29 -36 -3 -50 -14 -7 -25 -20 -25 -31 0 -40 136 -40 260
0 76 24 118 20 165 -15 42 -32 96 -141 136 -275 24 -83 38 -112 65 -139 32
-32 38 -34 76 -28 130 21 183 134 144 308 -17 78 -63 183 -100 233 -37 49 -56
92 -56 129 0 28 8 41 39 68 22 18 62 42 89 51 28 10 53 26 57 35 3 9 3 40 -1
70 l-7 54 -62 -4 -62 -4 -6 86 c-10 163 -58 240 -244 395 -147 123 -192 174
-243 280 -51 106 -75 195 -105 400 -14 93 -44 271 -65 394 -22 123 -40 234
-40 247 0 12 11 67 24 121 l24 98 142 145 c78 80 149 158 157 174 20 39 13
128 -14 164 -42 56 -82 50 -225 -35 -26 -15 -49 -25 -53 -22 -3 4 -7 62 -8
130 -2 119 -1 126 25 171 15 25 78 102 140 170 62 68 138 152 168 186 l55 63
55 -22 c45 -17 71 -20 145 -17 79 3 101 8 165 39 181 86 293 231 410 531 93
239 125 393 125 608 0 196 -14 252 -102 417 -36 68 -79 177 -129 325 -54 162
-93 257 -140 346 -88 167 -95 189 -103 327 -8 136 -21 167 -77 185 -39 13 -54
10 -150 -37 -39 -19 -77 -31 -86 -28 -38 15 -54 169 -21 196 24 20 40 66 48
134 19 172 40 230 91 254 15 6 28 10 30 8 2 -2 7 -58 10 -124 7 -120 7 -121
35 -134 16 -8 45 -38 66 -68 21 -30 50 -63 66 -75 l27 -20 23 22 c20 20 22 33
22 115 0 109 -20 174 -71 242 l-35 45 75 82 c115 123 148 176 148 235 0 90
-51 158 -214 286 -228 177 -286 196 -663 217 -254 14 -347 26 -360 47 -5 9
-22 30 -37 47 l-26 31 -269 1 c-278 2 -374 9 -849 64 -297 35 -342 49 -393
123 -66 97 -80 190 -81 532 0 194 -4 278 -16 330 -41 190 -56 278 -84 490 -17
126 -38 245 -47 263 -70 147 -195 -15 -163 -212 6 -37 30 -117 54 -179 24 -62
51 -137 60 -167 21 -73 34 -374 23 -526 -6 -80 -6 -147 2 -205 22 -170 13
-217 -48 -245 -54 -25 -69 -42 -76 -85 -4 -21 -15 -49 -25 -62 l-19 -24 -328
-9 c-555 -15 -747 -10 -789 21 -17 12 -16 16 23 58 49 53 62 76 64 113 3 43
-9 71 -42 94 -55 40 -38 72 74 145 138 90 181 221 102 312 -23 27 -26 28 -132
28 l-108 0 3 25 c7 64 55 95 222 140 62 17 124 37 139 45 39 20 85 123 85 193
1 47 -3 57 -27 77 -42 37 -89 45 -274 45 l-173 0 0 29 c0 15 9 40 20 54 11 14
20 33 20 42 0 39 -43 86 -117 129 l-76 44 26 26 c14 14 31 26 37 26 21 0 87
-32 177 -87 63 -37 107 -57 137 -60 40 -5 46 -3 62 23 16 23 19 48 19 142 l0
114 30 -7 c204 -41 383 -58 554 -53 123 3 144 6 168 24 15 12 29 29 31 38 7
32 -37 84 -95 112 -49 24 -69 28 -187 32 -183 6 -184 8 -207 237 -14 141 -14
145 -4 255 15 164 -25 488 -82 663 -42 132 -46 184 -17 224 21 28 21 37 19
303 -2 152 -8 287 -13 301 -11 28 -66 79 -85 79 -7 0 -22 3 -34 6 -21 6 -21 3
-22 -83 -1 -48 -12 -160 -26 -247 -29 -187 -31 -259 -9 -399 9 -56 17 -172 19
-257 2 -133 7 -174 34 -290 56 -239 83 -561 53 -617 -12 -21 -13 -21 -60 -6
-77 27 -138 99 -220 260 -39 76 -82 154 -97 173 -46 63 -95 75 -154 39 -18
-11 -34 -19 -36 -17 -47 57 -27 127 65 234 82 96 95 132 93 247 -3 115 11 153
76 209 26 22 37 38 31 44 -7 7 2 53 25 134 20 70 35 147 35 176 0 45 -5 58
-35 94 -19 23 -35 49 -35 58 0 9 38 53 84 98 46 45 87 91 91 104 10 33 -21 69
-92 105 -33 16 -85 47 -115 68 -62 43 -107 53 -160 34z m-37 -2086 c22 -21 39
-43 39 -49 0 -18 -60 -36 -88 -26 -22 8 -28 17 -30 48 -7 78 20 87 79 27z
m1184 -2221 c64 -21 82 -22 220 -17 83 3 188 13 235 22 107 21 191 15 326 -24
56 -16 120 -32 143 -36 23 -4 53 -18 70 -33 15 -15 39 -35 53 -44 42 -28 42
-56 1 -94 -51 -47 -111 -68 -173 -61 -45 5 -53 3 -82 -23 -44 -40 -131 -85
-208 -106 -53 -15 -97 -18 -234 -16 -169 2 -301 -9 -591 -48 -166 -22 -404
-26 -594 -10 -63 5 -188 12 -279 16 l-164 7 38 24 c22 13 104 44 184 69 212
68 260 96 260 155 0 42 -32 84 -79 102 -21 9 -85 21 -142 27 -123 12 -169 24
-201 50 l-23 19 90 1 c50 0 149 7 220 16 165 21 437 32 675 29 162 -2 194 -5
255 -25z m1426 -47 c33 -19 33 -36 1 -41 -23 -4 -66 33 -57 48 9 14 23 12 56
-7z m-4078 -33 c-14 -13 -53 -22 -53 -12 0 11 42 31 53 25 5 -3 5 -9 0 -13z
m-83 -10 c33 -21 -91 -50 -277 -66 -71 -6 -83 -4 -83 9 0 15 28 27 65 27 11 0
28 9 38 20 15 18 29 20 129 20 62 0 120 -5 128 -10z m5115 -280 c-11 -5 -64
-25 -117 -45 -103 -37 -171 -44 -203 -21 -18 13 -17 15 20 21 22 4 85 18 140
31 101 23 200 32 160 14z m-452 -132 c20 -10 17 -12 -34 -24 -70 -16 -209 -79
-394 -177 -77 -41 -143 -73 -147 -70 -15 8 -8 78 11 109 30 49 107 80 266 108
77 13 163 33 190 44 59 24 78 26 108 10z m-2519 -214 c26 -10 20 -37 -6 -28
-29 8 -31 10 -23 23 7 13 8 13 29 5z m-2946 -306 c-3 -7 -13 -15 -24 -17 -16
-3 -17 -1 -5 13 16 19 34 21 29 4z m-1390 -40 c-5 -14 -69 -50 -76 -43 -7 7
20 36 43 45 29 12 37 12 33 -2z m2157 -348 c-13 -21 -201 -97 -213 -86 -8 9
52 40 127 67 85 31 95 33 86 19z m4922 -262 c-3 -84 -8 -161 -12 -170 -10 -25
-46 -22 -90 7 l-37 26 -115 -31 c-64 -17 -117 -29 -119 -27 -2 2 12 26 31 54
35 53 93 105 210 190 39 28 81 63 94 77 14 14 29 26 34 26 6 0 8 -57 4 -152z
m287 -58 c57 -55 84 -73 125 -86 57 -17 84 -48 96 -112 10 -52 34 -81 156
-189 111 -97 145 -140 134 -172 -5 -17 -44 -41 -67 -41 -6 0 -20 -7 -30 -17
-29 -26 -24 -116 12 -215 17 -46 34 -119 39 -163 8 -63 22 -108 66 -210 133
-302 140 -506 21 -567 -33 -17 -68 -23 -176 -29 -142 -8 -214 -21 -396 -69
-61 -17 -114 -30 -119 -30 -16 0 4 84 33 139 16 31 69 116 117 189 99 150 125
210 125 285 0 80 -38 125 -143 171 -70 32 -113 69 -127 111 -16 50 6 118 80
240 40 68 60 111 60 133 0 59 -24 97 -90 142 l-62 42 6 52 c3 28 13 130 21
226 18 209 23 240 37 240 5 0 43 -32 82 -70z m-676 -152 c-3 -7 -15 -14 -29
-16 -23 -2 -23 -2 -5 13 24 18 39 20 34 3z m-4468 -118 c0 -5 -6 -10 -14 -10
-8 0 -16 -6 -19 -12 -2 -7 -7 -10 -11 -7 -8 7 21 39 35 39 5 0 9 -4 9 -10z
m-313 -156 c5 -16 -62 -88 -140 -153 -40 -32 -175 -129 -302 -216 -243 -167
-418 -297 -525 -390 -60 -52 -66 -55 -78 -38 -11 14 -12 35 -6 88 4 39 8 88 7
111 0 39 2 42 71 91 118 84 194 127 504 283 163 82 331 169 372 194 74 44 91
49 97 30z m5143 -37 c0 -23 -23 -46 -62 -62 -48 -20 -52 -2 -9 44 29 31 71 42
71 18z m-3195 -87 c-50 -52 -309 -170 -346 -158 -16 5 47 51 138 100 77 42
224 100 232 92 3 -2 -8 -18 -24 -34z m4288 -300 c3 -13 0 -20 -8 -20 -17 0
-28 17 -20 30 10 16 22 12 28 -10z m34 -85 c3 -9 3 -19 -1 -22 -8 -9 -37 18
-30 28 8 14 24 11 31 -6z m57 -145 c24 -46 48 -121 42 -128 -3 -2 -14 2 -26 8
-28 15 -46 60 -55 135 -7 66 -2 64 39 -15z m-7575 -22 c-5 -18 -9 -34 -9 -35
0 -2 -4 -3 -9 -3 -5 0 -14 13 -19 29 -11 31 -5 39 30 40 14 1 15 -4 7 -31z
m751 -303 c28 -25 60 -45 70 -45 11 0 20 -2 20 -4 0 -7 -115 -115 -215 -202
-161 -142 -285 -219 -369 -230 -42 -6 -45 -5 -60 25 -12 22 -14 36 -7 50 10
19 22 24 122 61 78 28 93 47 86 107 -6 55 6 83 55 130 31 30 224 153 240 153
4 0 30 -20 58 -45z m6240 -634 c0 -5 -7 -12 -16 -15 -14 -5 -15 -4 -4 9 14 17
20 19 20 6z m-61 -48 c-190 -229 -326 -363 -366 -363 -20 0 -17 106 6 155 20
46 72 95 134 127 33 17 217 93 236 97 2 1 -2 -7 -10 -16z m371 -123 c-87 -74
-174 -120 -226 -120 -29 0 -30 13 -3 56 37 60 106 92 204 93 l60 0 -35 -29z
m-7051 -204 c-6 -13 -22 -29 -36 -35 -31 -14 -33 -14 -33 6 0 25 30 53 56 53
21 0 22 -2 13 -24z m2638 -113 c2 -6 -13 -23 -34 -37 -30 -21 -39 -23 -45 -12
-11 20 -1 41 25 54 27 13 49 11 54 -5z m-2352 -413 c-84 -98 -118 -127 -164
-136 -24 -5 -31 -3 -31 9 0 27 30 49 60 42 23 -5 29 -2 40 25 17 40 80 104
127 129 21 11 39 20 41 21 1 0 -32 -40 -73 -90z m3875 17 c-121 -93 -369 -275
-540 -397 -118 -85 -248 -181 -289 -213 -40 -32 -105 -74 -144 -93 -80 -41
-91 -36 -82 35 12 97 96 197 252 300 96 64 421 226 643 320 149 64 201 79 160
48z m-1241 -46 c21 -13 6 -41 -18 -34 -21 5 -27 23 -14 36 8 9 15 9 32 -2z
m-49 -39 c0 -20 -104 -122 -144 -141 -39 -19 -76 -20 -76 -2 0 21 65 77 130
111 78 41 90 45 90 32z m-2734 -555 c8 -8 -21 -70 -42 -89 -11 -9 -31 -21 -46
-27 -23 -9 -29 -7 -38 9 -18 34 -12 87 13 105 20 15 99 17 113 2z m3672 -249
c-6 -16 -48 -43 -48 -30 0 13 28 42 42 42 5 0 8 -5 6 -12z m-149 -133 c-150
-145 -507 -398 -693 -491 -125 -63 -141 -58 -88 27 65 102 201 199 516 372
111 60 215 119 231 132 50 37 110 64 114 52 2 -6 -34 -47 -80 -92z m-3206 -67
c-45 -77 -220 -231 -327 -285 -57 -29 -57 -23 -1 62 35 51 94 93 115 80 5 -3
16 11 25 32 23 54 52 82 120 114 79 38 91 38 68 -3z m5698 -430 c5 -21 25
-184 23 -187 -2 -2 -35 1 -73 8 -39 6 -91 11 -116 11 -43 0 -46 1 -39 22 23
75 108 148 172 148 17 0 32 -1 33 -2z m506 -848 c45 -27 61 -65 79 -181 21
-143 42 -177 122 -198 44 -12 51 -26 32 -62 -17 -30 -61 -24 -123 19 -68 45
-257 219 -257 235 0 7 18 41 40 77 22 36 43 80 46 98 7 37 17 39 61 12z
m-6068 -122 c-45 -84 -276 -275 -368 -303 -23 -7 -24 -5 -18 25 11 51 40 82
128 135 46 27 99 63 117 80 31 28 127 84 145 85 4 0 2 -10 -4 -22z m2094 -31
c-19 -22 -102 -77 -115 -77 -13 0 -9 34 7 58 16 21 102 54 118 45 5 -3 0 -14
-10 -26z m4257 -197 c0 -11 -7 -20 -15 -20 -8 0 -15 9 -15 20 0 11 7 20 15 20
8 0 15 -9 15 -20z m-3882 -93 c12 -11 22 -30 22 -41 0 -32 -89 -107 -191 -160
-126 -66 -210 -121 -292 -190 -79 -68 -99 -101 -99 -169 1 -40 -22 -127 -33
-127 -1 0 -22 7 -45 15 -23 8 -73 15 -111 15 -53 0 -69 3 -69 14 0 22 29 46
54 46 28 0 46 18 46 47 0 33 191 215 325 308 135 95 255 194 295 245 34 43 47
43 98 -3z m3482 -172 c0 -57 -69 -105 -149 -105 -65 0 -74 7 -51 40 41 57 200
109 200 65z m-5196 -331 c9 -8 16 -24 16 -35 0 -15 -7 -19 -32 -19 -55 0 -65
14 -35 44 31 31 31 31 51 10z m2862 -66 c8 -27 2 -31 -61 -36 -45 -4 -54 -2
-50 10 8 19 75 57 91 51 7 -3 16 -14 20 -25z m-3802 -38 c32 -5 61 -11 63 -14
2 -2 -5 -22 -16 -45 -24 -47 -77 -86 -148 -107 -62 -20 -333 -32 -333 -16 0 7
19 50 42 96 29 59 48 86 63 89 42 9 272 7 329 -3z m-1894 -56 c66 -27 49 -37
-47 -29 -49 4 -90 9 -93 12 -3 2 4 11 14 19 26 19 76 18 126 -2z m504 -53 c40
-61 75 -86 107 -76 41 13 16 -14 -28 -32 -41 -15 -78 -18 -250 -18 -111 0
-205 4 -209 8 -14 13 11 41 44 49 45 12 48 25 13 68 -17 21 -31 41 -31 44 0 3
64 7 143 9 78 1 149 4 158 5 9 1 30 -22 53 -57z m2201 -20 c55 -11 184 -30
288 -42 l187 -22 21 -34 c12 -18 35 -41 52 -50 l32 -16 -35 -15 c-59 -24 -157
-40 -337 -56 -95 -8 -239 -24 -320 -35 -229 -30 -273 -33 -273 -17 0 7 7 20
17 27 9 8 34 36 55 62 29 37 38 58 38 87 0 37 3 40 53 63 28 13 63 34 77 45
31 26 24 26 145 3z m785 -972 c0 -25 -33 -22 -38 4 -2 12 3 17 17 17 15 0 21
-6 21 -21z"/>
<path d="M8813 12931 c-23 -11 -70 -38 -104 -61 -58 -40 -61 -44 -55 -74 15
-73 83 -101 156 -64 64 33 102 91 104 159 1 53 1 54 -29 57 -16 1 -49 -7 -72
-17z"/>
<path d="M8990 11341 c-38 -77 -39 -108 -3 -122 32 -12 98 -3 131 17 40 26 23
101 -31 137 -55 35 -64 32 -97 -32z"/>
<path d="M8405 11088 c-11 -7 -40 -13 -64 -13 -41 -1 -46 -4 -57 -36 -38 -104
-2 -158 133 -203 45 -15 87 -25 93 -21 27 16 42 69 38 131 -7 111 -78 181
-143 142z"/>
<path d="M10430 9859 c-7 -11 -14 -44 -17 -72 -3 -41 0 -61 19 -97 45 -87 123
-101 193 -33 66 64 42 129 -68 182 -89 42 -114 46 -127 20z"/>
<path d="M9856 9049 c-34 -27 -52 -63 -61 -119 -9 -67 7 -83 87 -88 61 -4 67
-2 99 26 31 28 34 35 34 89 0 86 -21 113 -84 113 -34 0 -56 -6 -75 -21z"/>
<path d="M9990 7040 c-16 -29 -4 -89 22 -117 29 -32 76 -38 140 -19 80 24 80
24 57 88 -17 44 -25 56 -43 55 -11 0 -53 4 -92 8 -68 7 -73 6 -84 -15z"/>
<path d="M10398 7003 c-5 -41 5 -100 19 -114 5 -5 18 -2 31 7 32 22 31 86 -3
119 -33 34 -42 31 -47 -12z"/>
<path d="M12523 6729 c-35 -10 -83 -61 -83 -89 0 -13 20 -26 73 -48 93 -38
138 -48 332 -71 436 -53 736 -54 1220 -3 423 45 532 52 799 52 240 0 385 -9
553 -34 82 -13 89 -12 109 5 29 26 86 25 232 -8 144 -32 175 -28 180 25 2 19
-8 56 -24 93 l-28 61 -60 -6 c-299 -28 -1004 -31 -1691 -6 -838 30 -1560 43
-1612 29z"/>
<path d="M13325 6320 c-49 -24 -156 -26 -300 -5 -141 21 -240 19 -292 -4 -82
-38 -98 -111 -30 -145 123 -60 708 3 782 84 51 56 -74 112 -160 70z"/>
<path d="M9932 4978 c-17 -17 -15 -123 3 -158 34 -66 153 -85 214 -34 26 22
31 33 31 69 0 51 -2 53 -94 100 -71 36 -132 45 -154 23z"/>
<path d="M11594 4700 c-30 -12 -62 -56 -69 -94 -8 -42 19 -109 57 -141 36 -30
42 -31 113 -4 81 30 86 47 41 147 -20 44 -36 85 -36 91 0 13 -75 14 -106 1z"/>
<path d="M8225 4625 c-22 -8 -41 -15 -42 -15 -1 0 -10 -14 -18 -31 -19 -36
-13 -79 15 -104 64 -58 252 -23 333 62 26 28 27 30 9 46 -53 48 -218 72 -297
42z"/>
<path d="M5860 4620 c-52 -4 -225 -13 -385 -19 -475 -19 -682 -40 -850 -87
-162 -45 -243 -110 -231 -183 25 -159 379 -209 1381 -195 332 4 517 3 600 -5
151 -15 258 -32 248 -41 -4 -3 -46 -17 -93 -30 -106 -29 -200 -70 -249 -110
-54 -42 -74 -89 -69 -161 6 -79 44 -121 138 -150 90 -28 437 -61 640 -62 180
0 272 14 364 56 55 25 144 102 132 114 -3 4 -109 10 -234 14 -234 8 -336 22
-414 57 -50 23 -46 25 72 41 293 39 758 217 799 307 41 91 -220 154 -724 174
-132 5 -391 17 -575 26 -336 17 -533 15 -900 -5 -101 -6 -213 -6 -290 -1 -135
10 -286 38 -273 51 11 11 183 45 328 65 99 14 239 17 803 21 375 3 682 7 682
10 0 9 -31 31 -74 54 -84 45 -202 61 -476 64 -140 2 -298 -1 -350 -5z"/>
<path d="M8395 3823 c-76 -6 -158 -25 -212 -48 -49 -22 -53 -26 -43 -45 14
-26 61 -50 130 -67 65 -16 543 -37 705 -30 121 4 165 18 165 51 0 19 -10 24
-77 38 -43 10 -127 28 -188 42 -201 46 -375 67 -480 59z"/>
<path d="M5995 2553 c-46 -24 -66 -45 -86 -88 -32 -69 -19 -165 29 -218 47
-52 154 -73 225 -43 59 24 117 111 117 176 0 65 -58 152 -117 176 -43 19 -131
17 -168 -3z"/>
<path d="M1010 2405 l0 -155 305 0 305 0 0 -845 0 -845 175 0 175 0 0 845 0
845 305 0 305 0 0 155 0 155 -785 0 -785 0 0 -155z"/>
<path d="M4350 1560 l0 -1000 155 0 155 0 0 197 0 198 102 102 102 102 75
-102 c42 -56 141 -191 221 -300 l145 -197 199 0 c189 0 198 1 184 18 -8 9
-122 156 -254 327 -131 171 -262 341 -292 379 l-53 69 34 36 c111 118 557 611
557 615 0 3 -87 6 -192 5 l-193 0 -315 -346 -315 -347 -3 622 -2 622 -155 0
-155 0 0 -1000z"/>
<path d="M7430 1560 l0 -1000 175 0 175 0 0 712 c0 569 3 710 13 700 6 -7 242
-326 522 -710 l510 -697 173 -3 172 -2 0 1000 0 1000 -175 0 -175 0 -2 -691
-3 -691 -432 584 c-237 321 -466 631 -510 690 l-78 107 -182 1 -183 0 0 -1000z"/>
<path d="M14610 1560 l0 -1000 155 0 155 0 0 1000 0 1000 -155 0 -155 0 0
-1000z"/>
<path d="M11970 2039 c-134 -16 -236 -64 -332 -157 l-68 -65 0 96 0 97 -155 0
-155 0 0 -1000 0 -1000 155 0 155 0 0 373 0 372 70 -67 c75 -72 174 -128 265
-148 70 -16 219 -14 290 5 84 22 171 65 233 115 312 251 336 913 43 1209 -127
128 -316 192 -501 170z m40 -280 c128 -21 231 -100 289 -223 38 -79 51 -147
51 -254 0 -258 -133 -438 -350 -473 -126 -20 -285 37 -379 136 l-51 54 0 291
0 291 50 50 c73 73 189 124 315 138 6 0 39 -4 75 -10z"/>
<path d="M10041 2019 c-131 -34 -215 -83 -317 -184 -100 -99 -152 -187 -196
-325 -20 -65 -23 -96 -23 -225 0 -127 4 -162 23 -229 58 -202 182 -356 354
-440 145 -72 230 -89 407 -83 91 3 170 11 211 22 84 22 254 105 304 148 l40
34 -68 99 c-38 54 -70 101 -72 102 -1 2 -27 -15 -58 -38 -115 -87 -299 -134
-438 -111 -102 16 -204 68 -264 134 -53 58 -100 150 -110 215 l-7 42 558 0
558 0 -6 128 c-7 156 -25 227 -89 361 -42 87 -62 116 -127 181 -87 87 -194
147 -311 174 -94 22 -275 20 -369 -5z m293 -244 c37 -8 87 -25 110 -39 88 -52
162 -154 185 -256 20 -88 62 -80 -395 -80 l-407 0 6 52 c14 115 105 241 210
292 93 46 179 55 291 31z"/>
<path d="M13430 2034 c-80 -16 -180 -49 -248 -83 -80 -40 -179 -112 -188 -136
-3 -8 23 -61 57 -119 l63 -104 50 44 c196 174 526 189 660 32 46 -53 56 -97
56 -243 l0 -127 -47 42 c-98 86 -242 133 -413 134 -160 0 -276 -41 -375 -135
-180 -170 -180 -485 -1 -665 96 -95 223 -144 376 -144 164 0 311 51 415 142
l45 40 0 -76 0 -76 160 0 160 0 0 503 c-1 375 -4 521 -14 578 -33 183 -142
304 -329 365 -73 24 -100 27 -242 30 -88 1 -171 0 -185 -2z m235 -788 c68 -18
128 -50 175 -93 l40 -35 0 -118 0 -118 -41 -37 c-113 -102 -326 -135 -463 -70
-60 28 -110 79 -133 134 -20 47 -19 137 2 186 29 71 108 136 190 156 50 12
177 10 230 -5z"/>
<path d="M2650 1441 c0 -529 1 -573 19 -630 46 -148 128 -227 278 -266 76 -21
250 -20 328 0 86 22 210 86 280 144 l60 50 3 -90 3 -89 159 0 160 0 0 725 0
725 -160 0 -160 0 0 -513 0 -513 -37 -36 c-106 -101 -208 -142 -346 -141 -77
1 -96 4 -145 30 -33 16 -66 43 -79 62 -51 76 -53 98 -53 623 l0 488 -155 0
-155 0 0 -569z"/>
<path d="M5930 1285 l0 -725 155 0 155 0 0 725 0 725 -155 0 -155 0 0 -725z"/>
</g>
</svg>
